<?xml version="1.0" standalone="no"?>
<!DOCTYPE svg PUBLIC "-//W3C//DTD SVG 20010904//EN"
 "http://www.w3.org/TR/2001/REC-SVG-20010904/DTD/svg10.dtd">
<svg version="1.0" xmlns="http://www.w3.org/2000/svg"
 width="2699.000000pt" height="2699.000000pt" viewBox="0 0 2699.000000 2699.000000"
 preserveAspectRatio="xMidYMid meet">
<metadata>
Created by potrace 1.14, written by Peter Selinger 2001-2017
</metadata>
<g transform="translate(0.000000,2699.000000) scale(0.100000,-0.100000)"
fill="#000000" stroke="none">
<path d="M50 14880 c0 -4 -11 -5 -25 -2 l-25 4 0 -1385 c0 -1037 3 -1388 12
-1393 7 -5 8 -3 3 7 -7 12 -6 12 7 1 13 -10 17 -10 21 0 4 10 6 10 6 -1 1 -11
4 -11 16 -1 12 10 15 10 15 0 0 -10 3 -10 14 -1 11 9 16 9 21 0 6 -8 10 -7 16
2 7 12 9 12 9 0 0 -11 3 -11 15 -1 12 10 15 10 15 -1 0 -10 3 -10 12 -1 8 8
15 9 25 1 10 -9 13 -8 13 1 0 10 3 10 15 0 12 -10 15 -10 15 1 0 12 2 12 9 1
4 -8 12 -14 16 -14 4 0 12 6 16 14 6 8 9 9 9 1 0 -12 17 -12 37 0 6 4 15 3 18
-3 5 -8 11 -8 20 0 10 8 15 8 20 0 5 -8 10 -8 20 0 10 8 15 8 20 0 5 -7 11 -8
19 -1 7 6 17 6 26 1 8 -5 21 -5 31 1 12 6 20 5 25 -2 4 -8 9 -7 15 2 7 11 9
11 9 1 0 -8 5 -10 12 -6 18 12 48 12 55 1 3 -5 9 -3 14 4 7 12 9 12 9 0 0 -9
4 -10 13 -5 15 11 38 11 55 1 7 -5 12 -3 12 5 0 8 3 9 8 3 10 -14 32 -17 32
-4 0 8 5 8 15 -1 12 -10 18 -10 29 -1 10 9 16 9 21 1 5 -8 10 -8 20 0 10 8 15
8 20 0 5 -8 10 -8 20 0 9 8 15 8 20 0 3 -6 12 -7 18 -3 18 11 47 11 54 0 3 -5
9 -3 14 4 7 12 9 12 9 0 0 -11 3 -11 15 -1 12 10 15 10 15 0 0 -10 3 -10 14
-1 11 9 16 9 21 0 6 -8 10 -7 16 2 7 12 9 12 9 0 0 -11 3 -11 15 -1 12 10 15
10 15 0 0 -9 3 -10 13 -1 10 8 17 7 25 -1 9 -9 12 -9 12 1 0 11 3 11 15 1 12
-10 15 -10 15 1 0 12 2 12 9 1 4 -8 12 -14 16 -14 4 0 12 6 16 14 6 9 9 10 9
1 0 -9 7 -10 24 -3 15 5 27 5 35 -3 8 -8 11 -8 11 2 0 10 3 11 14 2 11 -9 15
-9 19 1 4 10 6 10 6 -1 1 -10 4 -11 15 -2 10 9 16 9 21 1 5 -8 11 -8 21 1 11
9 14 9 14 -1 0 -10 3 -10 15 0 12 10 15 10 15 0 0 -10 3 -10 14 -1 11 9 16 9
21 0 6 -8 10 -7 16 2 7 12 9 12 9 0 0 -11 3 -11 15 -1 9 8 15 8 15 2 0 -10 49
-7 59 4 2 2 10 -1 18 -7 10 -9 13 -8 13 1 0 10 3 10 15 0 12 -10 15 -10 15 1
0 12 2 12 9 0 6 -9 10 -10 16 -2 5 9 10 9 20 1 10 -8 15 -8 20 0 5 8 10 8 20
0 10 -8 14 -7 18 2 4 10 6 10 6 -1 1 -11 4 -11 16 -1 8 7 15 8 15 3 0 -5 7
-10 15 -10 8 0 15 5 15 11 0 7 3 7 8 1 10 -14 32 -17 32 -4 0 8 4 8 14 0 10
-9 16 -9 21 -1 5 8 10 8 20 0 10 -8 14 -7 18 2 4 10 6 10 6 -1 1 -11 4 -11 16
-1 12 10 15 10 15 0 0 -10 3 -10 14 -1 11 9 16 9 21 0 6 -8 10 -7 16 2 7 12 9
12 9 0 0 -11 3 -11 15 -1 12 10 15 10 15 0 0 -9 3 -10 13 -1 10 8 17 7 25 -1
9 -9 12 -9 12 1 0 11 3 11 15 1 12 -10 15 -10 15 1 0 12 2 12 9 1 4 -8 12 -14
16 -14 4 0 12 6 16 14 6 8 9 9 9 1 0 -12 17 -12 37 0 6 4 15 3 18 -3 5 -8 11
-8 20 0 10 8 15 8 20 0 5 -8 10 -8 20 0 10 8 15 8 20 0 5 -7 11 -8 19 -1 7 6
17 6 26 1 8 -5 21 -5 31 1 12 6 20 5 25 -2 4 -8 9 -7 15 2 7 11 9 11 9 1 0 -8
5 -10 12 -6 18 12 48 12 55 1 3 -5 9 -3 14 4 7 12 9 12 9 0 0 -9 4 -10 13 -5
15 11 38 11 55 1 7 -5 12 -3 12 5 0 8 3 9 8 3 10 -14 32 -17 32 -4 0 8 5 8 15
-1 12 -10 18 -10 29 -1 10 9 16 9 21 1 5 -8 10 -8 20 0 10 8 15 8 20 0 5 -8
10 -8 20 0 9 8 15 8 20 0 3 -6 12 -7 18 -3 18 11 47 11 54 0 3 -5 9 -3 14 4 7
12 9 12 9 0 0 -11 3 -11 15 -1 12 10 15 10 15 0 0 -10 3 -10 14 -1 11 9 16 9
21 0 6 -8 10 -7 16 2 7 12 9 12 9 0 0 -11 3 -11 15 -1 12 10 15 10 15 0 0 -9
3 -10 13 -1 10 8 17 7 25 -1 9 -9 12 -9 12 1 0 11 3 11 15 1 12 -10 15 -10 15
1 0 12 2 12 9 1 4 -8 12 -14 16 -14 4 0 12 6 16 14 6 9 9 10 9 1 0 -9 7 -10
24 -3 15 5 27 5 35 -3 8 -8 11 -8 11 2 0 10 3 11 14 2 11 -9 15 -9 19 1 4 10
6 10 6 -1 1 -10 4 -11 15 -2 10 9 16 9 21 1 5 -8 11 -8 21 1 11 9 14 9 14 -1
0 -10 3 -10 15 0 12 10 15 10 15 0 0 -10 3 -10 14 -1 11 9 16 9 21 0 6 -8 10
-7 16 2 7 12 9 12 9 0 0 -11 3 -11 15 -1 9 8 15 8 15 2 0 -10 49 -7 59 4 2 2
10 -1 18 -7 10 -9 13 -8 13 1 0 10 3 10 15 0 12 -10 15 -10 15 1 0 12 2 12 9
0 6 -9 10 -10 16 -2 5 9 10 9 20 1 10 -8 15 -8 20 0 5 8 10 8 20 0 10 -8 14
-7 18 2 4 10 6 10 6 -1 1 -11 4 -11 16 -1 8 7 15 8 15 3 0 -5 7 -10 15 -10 8
0 15 5 15 11 0 7 3 7 8 1 10 -14 32 -17 32 -4 0 8 4 8 14 0 10 -9 16 -9 21 -1
5 8 10 8 20 0 10 -8 14 -7 18 2 4 10 6 10 6 -1 1 -11 4 -11 16 -1 12 10 15 10
15 0 0 -10 3 -10 14 -1 11 9 16 9 21 0 6 -8 10 -7 16 2 7 12 9 12 9 0 0 -11 3
-11 15 -1 12 10 15 10 15 0 0 -9 3 -10 13 -1 10 8 17 7 25 -1 9 -9 12 -9 12 1
0 11 3 11 15 1 12 -10 15 -10 15 1 0 12 2 12 9 1 11 -17 21 -17 32 0 6 8 9 9
9 1 0 -12 17 -12 37 0 6 4 15 3 18 -3 5 -8 11 -8 20 0 10 8 15 8 20 0 5 -8 10
-8 20 0 10 8 15 8 20 0 5 -7 11 -8 19 -1 7 6 17 6 26 1 8 -5 21 -5 31 1 12 6
20 5 25 -2 4 -8 9 -7 15 2 7 11 9 11 9 1 0 -8 5 -10 12 -6 18 12 48 12 55 1 3
-5 9 -3 14 4 7 12 9 12 9 0 0 -9 4 -10 12 -5 16 11 39 11 56 1 7 -5 12 -3 12
5 0 8 3 9 8 3 10 -14 32 -17 32 -4 0 8 5 8 15 -1 12 -10 18 -10 29 -1 10 9 16
9 21 1 5 -8 10 -8 20 0 10 8 15 8 20 0 5 -8 10 -8 20 0 9 8 15 8 20 0 3 -6 12
-7 18 -3 18 11 47 11 54 0 3 -5 9 -3 14 4 7 12 9 12 9 0 0 -11 3 -11 15 -1 12
10 15 10 15 0 0 -10 3 -10 14 -1 11 9 16 9 21 0 6 -8 10 -7 16 2 7 12 9 12 9
0 0 -11 3 -11 15 -1 12 10 15 10 15 0 0 -9 3 -10 13 -1 10 8 17 7 25 -1 9 -9
12 -9 12 1 0 11 3 11 15 1 12 -10 15 -10 15 1 0 12 2 12 9 1 4 -8 12 -14 16
-14 4 0 12 6 16 14 7 10 9 10 9 0 0 -9 5 -10 19 -2 14 7 22 7 27 -1 4 -8 9 -7
15 2 7 12 9 12 9 0 0 -11 3 -11 15 -1 12 10 15 10 15 0 0 -10 3 -10 14 -1 11
9 16 9 21 0 6 -8 10 -7 16 2 7 12 9 12 9 0 0 -11 3 -11 15 -1 12 10 15 10 15
0 0 -9 3 -10 13 -1 10 8 17 7 25 -1 9 -9 12 -9 12 1 0 11 3 11 15 1 12 -10 15
-10 15 1 0 12 2 12 9 1 4 -8 12 -14 16 -14 4 0 12 6 16 14 6 8 9 9 9 1 0 -12
17 -12 37 0 6 4 15 3 18 -3 5 -8 11 -8 20 0 10 8 15 8 20 0 5 -8 10 -8 20 0
10 8 15 8 20 0 5 -7 11 -8 19 -1 7 6 17 6 26 1 8 -5 21 -5 31 1 12 6 20 5 25
-2 4 -8 9 -7 15 2 7 11 9 11 9 1 0 -8 5 -10 12 -6 18 12 48 12 55 1 3 -5 9 -3
14 4 7 12 9 12 9 0 0 -9 4 -10 13 -5 15 11 38 11 55 1 7 -5 12 -3 12 5 0 8 3
9 8 3 10 -14 32 -17 32 -4 0 8 5 8 15 -1 12 -10 18 -10 29 -1 10 9 16 9 21 1
5 -8 10 -8 20 0 10 8 15 8 20 0 5 -8 10 -8 20 0 9 8 15 8 20 0 3 -6 12 -7 18
-3 18 11 47 11 54 0 3 -5 9 -3 14 4 7 12 9 12 9 0 0 -11 3 -11 15 -1 12 10 15
10 15 0 0 -10 3 -10 14 -1 11 9 16 9 21 0 6 -8 10 -7 16 2 7 12 9 12 9 0 0
-11 3 -11 15 -1 12 10 15 10 15 0 0 -9 3 -10 13 -1 10 8 17 7 25 -1 9 -9 12
-9 12 1 0 11 3 11 15 1 12 -10 15 -10 15 1 0 12 2 12 9 1 4 -8 12 -14 16 -14
4 0 12 6 16 14 6 9 9 10 9 1 0 -9 7 -10 24 -3 15 5 27 5 35 -3 8 -8 11 -8 11
2 0 10 3 11 14 2 11 -9 15 -9 19 1 4 10 6 10 6 -1 1 -10 4 -11 15 -2 10 9 16
9 21 1 5 -8 11 -8 21 1 11 9 14 9 14 -1 0 -10 3 -10 15 0 12 10 15 10 15 0 0
-10 3 -10 14 -1 11 9 16 9 21 0 6 -8 10 -7 16 2 7 12 9 12 9 0 0 -11 3 -11 15
-1 9 8 15 8 15 2 0 -10 49 -7 59 4 2 2 10 -1 18 -7 10 -9 13 -8 13 1 0 10 3
10 15 0 12 -10 15 -10 15 1 0 12 2 12 9 0 6 -9 10 -10 16 -2 5 9 10 9 20 1 10
-8 15 -8 20 0 5 8 10 8 20 0 10 -8 14 -7 18 2 4 10 6 10 6 -1 1 -11 4 -11 16
-1 8 7 15 8 15 3 0 -5 7 -10 15 -10 8 0 15 5 15 11 0 7 3 7 8 1 10 -14 32 -17
32 -4 0 8 4 8 14 0 10 -9 16 -9 21 -1 5 8 10 8 20 0 10 -8 14 -7 18 2 4 10 6
10 6 -1 1 -11 4 -11 16 -1 12 10 15 10 15 0 0 -10 3 -10 14 -1 11 9 16 9 21 0
6 -8 10 -7 16 2 7 12 9 12 9 0 0 -11 3 -11 15 -1 12 10 15 10 15 0 0 -9 3 -10
13 -1 10 8 17 7 25 -1 9 -9 12 -9 12 1 0 11 3 11 15 1 12 -10 15 -10 15 1 0
12 2 12 9 1 11 -17 21 -17 32 0 6 8 9 9 9 1 0 -12 17 -12 37 0 6 4 15 3 18 -3
5 -8 11 -8 20 0 10 8 15 8 20 0 5 -8 10 -8 20 0 10 8 15 8 20 0 5 -7 11 -8 19
-1 7 6 17 6 26 1 8 -5 21 -5 31 1 12 6 20 5 25 -2 4 -8 9 -7 15 2 7 11 9 11 9
1 0 -8 5 -10 12 -6 18 12 48 12 55 1 3 -5 9 -3 14 4 7 12 9 12 9 0 0 -9 4 -10
12 -5 16 11 39 11 56 1 7 -5 12 -3 12 5 0 8 3 9 8 3 10 -14 32 -17 32 -4 0 8
5 8 15 -1 12 -10 18 -10 29 -1 10 9 16 9 21 1 5 -8 10 -8 20 0 10 8 15 8 20 0
5 -8 10 -8 20 0 9 8 15 8 20 0 3 -6 12 -7 18 -3 18 11 47 11 54 0 3 -5 9 -3
14 4 7 12 9 12 9 0 0 -11 3 -11 15 -1 12 10 15 10 15 0 0 -10 3 -10 14 -1 11
9 16 9 21 0 6 -8 10 -7 16 2 7 12 9 12 9 0 0 -11 3 -11 15 -1 12 10 15 10 15
0 0 -9 3 -10 13 -1 10 8 17 7 25 -1 9 -9 12 -9 12 1 0 11 3 11 15 1 12 -10 15
-10 15 1 0 12 2 12 9 1 11 -17 21 -17 32 0 6 9 9 10 9 1 0 -9 7 -10 24 -3 15
5 27 5 35 -3 8 -8 11 -8 11 2 0 10 3 11 14 2 11 -9 15 -9 19 1 4 10 6 10 6 -1
1 -10 4 -11 15 -2 10 9 16 9 21 1 5 -8 11 -8 21 1 11 9 14 9 14 -1 0 -10 3
-10 15 0 12 10 15 10 15 0 0 -10 3 -10 14 -1 11 9 16 9 21 0 6 -8 10 -7 16 2
7 12 9 12 9 0 0 -11 3 -11 15 -1 9 8 15 8 15 2 0 -10 49 -7 59 4 2 2 10 -1 18
-7 10 -9 13 -8 13 1 0 10 3 10 15 0 12 -10 15 -10 15 1 0 12 2 12 9 0 6 -9 10
-10 16 -2 5 9 10 9 20 1 10 -8 15 -8 20 0 5 8 10 8 20 0 10 -8 14 -7 18 2 4
10 6 10 6 -1 1 -11 4 -11 16 -1 8 7 15 8 15 3 0 -5 7 -10 15 -10 8 0 15 5 15
11 0 7 3 7 8 1 10 -14 32 -17 32 -4 0 8 4 8 14 0 10 -9 16 -9 21 -1 5 8 10 8
20 0 10 -8 14 -7 18 2 4 10 6 10 6 -1 1 -11 4 -11 16 -1 12 10 15 10 15 0 0
-10 3 -10 14 -1 11 9 16 9 21 0 6 -8 10 -7 16 2 7 12 9 12 9 0 0 -11 3 -11 15
-1 12 10 15 10 15 0 0 -9 3 -10 13 -1 10 8 17 7 25 -1 9 -9 12 -9 12 1 0 11 3
11 15 1 12 -10 15 -10 15 1 0 12 2 12 9 1 11 -17 21 -17 32 0 6 8 9 9 9 1 0
-12 17 -12 37 0 6 4 15 3 18 -3 5 -8 11 -8 20 0 10 8 15 8 20 0 5 -8 10 -8 20
0 10 8 15 8 20 0 5 -7 11 -8 19 -1 7 6 17 6 26 1 8 -5 21 -5 31 1 12 6 20 5
25 -2 4 -8 9 -7 15 2 7 11 9 11 9 1 0 -8 5 -10 12 -6 18 12 48 12 55 1 3 -5 9
-3 14 4 7 12 9 12 9 0 0 -9 4 -10 13 -5 15 11 38 11 55 1 7 -5 12 -3 12 5 0 8
3 9 8 3 10 -14 32 -17 32 -4 0 8 5 8 15 -1 12 -10 18 -10 29 -1 10 9 16 9 21
1 5 -8 10 -8 20 0 10 8 15 8 20 0 5 -8 10 -8 20 0 9 8 15 8 20 0 3 -6 12 -7
18 -3 18 11 47 11 54 0 3 -5 9 -3 14 4 7 12 9 12 9 0 0 -11 3 -11 15 -1 12 10
15 10 15 0 0 -10 3 -10 14 -1 11 9 16 9 21 0 6 -8 10 -7 16 2 7 12 9 12 9 0 0
-11 3 -11 15 -1 12 10 15 10 15 0 0 -9 3 -10 13 -1 10 8 17 7 25 -1 9 -9 12
-9 12 1 0 11 3 11 15 1 12 -10 15 -10 15 1 0 12 2 12 9 1 4 -8 12 -14 16 -14
4 0 12 6 16 14 6 8 9 9 9 1 0 -12 17 -12 37 0 6 4 15 3 18 -3 5 -8 11 -8 20 0
10 8 15 8 20 0 5 -8 10 -8 20 0 10 8 15 8 20 0 5 -7 11 -8 19 -1 7 6 17 6 26
1 8 -5 21 -5 31 1 12 6 20 5 25 -2 4 -8 9 -7 15 2 7 11 9 11 9 1 0 -8 5 -10
12 -6 18 12 48 12 55 1 3 -5 9 -3 14 4 7 12 9 12 9 0 0 -9 4 -10 13 -5 15 11
38 11 55 1 7 -5 12 -3 12 5 0 8 3 9 8 3 10 -14 32 -17 32 -4 0 8 5 8 15 -1 12
-10 18 -10 29 -1 10 9 16 9 21 1 5 -8 10 -8 20 0 10 8 15 8 20 0 5 -8 10 -8
20 0 10 8 15 8 20 0 5 -8 10 -8 20 0 10 8 15 8 20 0 5 -8 10 -8 20 0 10 8 15
8 20 0 5 -8 10 -8 20 0 10 8 15 8 20 0 5 -8 10 -8 20 0 10 8 15 8 20 0 5 -7
11 -8 19 -1 7 6 17 6 26 1 8 -5 21 -5 31 1 12 6 20 5 25 -2 4 -8 9 -7 15 2 7
11 9 11 9 1 0 -8 5 -10 12 -6 18 12 48 12 55 1 3 -5 9 -3 14 4 7 12 9 12 9 0
0 -9 4 -10 13 -5 15 11 38 11 55 1 7 -5 12 -3 12 5 0 8 3 9 8 3 10 -14 32 -17
32 -4 0 8 5 8 15 -1 12 -10 18 -10 29 -1 10 9 16 9 21 1 5 -8 10 -8 20 0 10 8
15 8 20 0 5 -8 10 -8 20 0 10 8 15 8 20 0 5 -8 10 -8 20 0 10 8 15 8 20 0 5
-8 10 -8 20 0 10 8 15 8 20 0 5 -8 10 -8 20 0 10 8 15 8 20 0 5 -8 10 -8 20 0
10 8 15 8 20 0 5 -7 11 -8 19 -1 7 6 17 6 26 1 8 -5 21 -5 31 1 12 6 20 5 25
-2 4 -8 9 -7 15 2 7 11 9 11 9 1 0 -8 5 -10 12 -6 18 12 48 12 55 1 3 -5 9 -3
14 4 7 12 9 12 9 0 0 -9 4 -10 13 -5 15 11 38 11 55 1 7 -5 12 -3 12 5 0 8 3
9 8 3 10 -14 32 -17 32 -4 0 8 5 8 15 -1 12 -10 18 -10 29 -1 10 9 16 9 21 1
5 -8 10 -8 20 0 10 8 15 8 20 0 5 -8 10 -8 20 0 10 8 15 8 20 0 5 -8 10 -8 20
0 10 8 15 8 20 0 5 -8 10 -8 20 0 10 8 15 8 20 0 5 -8 10 -8 20 0 10 8 15 8
20 0 5 -8 10 -8 20 0 10 8 15 8 20 0 5 -7 11 -8 19 -1 7 6 17 6 26 1 8 -5 21
-5 31 1 12 6 20 5 25 -2 4 -8 9 -7 15 2 7 11 9 11 9 1 0 -8 5 -10 12 -6 18 12
48 12 55 1 3 -5 9 -3 14 4 7 12 9 12 9 0 0 -9 4 -10 13 -5 15 11 38 11 55 1 7
-5 12 -3 12 5 0 8 3 9 8 3 10 -14 32 -17 32 -4 0 8 5 8 15 -1 12 -10 18 -10
29 -1 10 9 16 9 21 1 5 -8 10 -8 20 0 10 8 15 8 20 0 5 -8 10 -8 20 0 10 8 15
8 20 0 5 -8 10 -8 20 0 10 8 15 8 20 0 5 -8 10 -8 20 0 10 8 15 8 20 0 5 -8
10 -8 20 0 10 8 15 8 20 0 5 -8 10 -8 20 0 10 8 15 8 20 0 5 -7 11 -8 19 -1 7
6 17 6 26 1 8 -5 21 -5 31 1 12 6 20 5 25 -2 4 -8 9 -7 15 2 7 11 9 11 9 1 0
-8 5 -10 12 -6 18 12 48 12 55 1 3 -5 9 -3 14 4 7 12 9 12 9 0 0 -9 4 -10 13
-5 15 11 38 11 55 1 7 -5 12 -3 12 5 0 10 2 10 9 0 4 -8 12 -14 16 -14 4 0 12
6 16 14 7 10 9 10 9 1 0 -18 181 -18 198 -1 9 9 12 9 12 0 0 -18 530 -17 549
1 11 10 13 9 7 -3 -4 -9 -1 -8 7 3 13 16 15 16 21 2 5 -13 19 -16 71 -14 36 1
65 6 65 11 0 4 3 7 8 7 24 -4 52 3 65 16 8 8 17 11 21 8 3 -4 6 -2 6 4 0 10
36 26 53 24 4 -1 7 3 7 8 0 5 12 12 27 16 15 3 43 20 64 36 45 35 47 36 45 4
0 -14 -4 -25 -7 -25 -8 0 -5 -32 4 -47 4 -6 3 -14 -3 -18 -6 -4 -5 -13 3 -25
11 -19 24 -20 215 -20 167 0 204 3 208 14 10 27 -12 49 -51 53 -21 1 -40 5
-43 8 -7 7 29 39 48 43 21 5 60 43 60 58 0 15 -27 44 -41 44 -6 0 -7 -6 -3
-12 6 -9 3 -9 -9 0 -9 8 -22 10 -29 6 -6 -4 -36 -8 -65 -9 -38 -2 -54 2 -58
13 -3 9 -2 18 2 21 4 3 8 17 7 31 0 23 9 62 24 100 3 8 6 18 6 21 4 25 71 147
79 142 6 -3 7 -2 4 4 -4 5 3 19 13 31 11 12 20 24 20 27 0 3 16 28 35 55 19
27 35 54 35 60 0 5 3 10 8 10 4 0 18 20 32 45 14 25 28 45 33 45 4 0 6 4 3 8
-3 5 6 25 20 45 13 20 24 38 24 39 -3 9 38 87 43 82 3 -4 6 2 6 12 0 18 7 56
11 62 2 1 4 11 5 22 1 11 3 25 4 30 0 6 5 10 9 10 7 0 12 -29 15 -77 0 -7 4
-13 9 -13 5 0 6 -5 3 -11 -4 -5 1 -19 11 -30 9 -10 14 -19 11 -19 -9 0 50
-108 89 -162 19 -26 34 -53 34 -58 0 -6 4 -10 8 -10 5 0 15 -12 23 -27 7 -16
26 -50 41 -76 16 -26 28 -54 28 -62 0 -8 5 -15 11 -15 5 0 8 -4 4 -9 -3 -5 0
-13 6 -16 5 -4 8 -13 5 -21 -3 -8 -2 -14 3 -14 12 0 41 -79 34 -96 -3 -8 -14
-14 -25 -14 -10 0 -16 -4 -13 -10 3 -6 0 -10 -7 -10 -20 0 -98 -76 -98 -95 0
-17 28 -65 44 -77 6 -4 7 -10 4 -14 -4 -3 0 -13 8 -21 8 -8 32 -41 53 -72 43
-62 81 -99 81 -78 0 8 3 9 8 1 11 -16 122 -19 122 -2 0 15 -34 40 -65 48 -16
5 -20 14 -19 43 0 20 -3 37 -7 37 -11 0 -8 51 6 83 l12 28 19 -28 c10 -15 19
-32 20 -38 0 -5 4 -17 7 -25 4 -8 8 -32 10 -52 5 -48 33 -81 61 -72 12 4 23
10 26 14 7 11 96 50 113 50 8 0 20 7 27 15 7 8 15 13 19 11 3 -2 17 1 31 7 30
12 47 17 77 22 18 3 22 -1 19 -18 -3 -12 -5 -24 -6 -27 -6 -15 -4 -36 4 -47 5
-8 4 -13 -2 -13 -6 0 -9 -8 -7 -17 2 -10 4 -21 4 -25 1 -5 97 -8 215 -8 162 0
215 3 218 13 7 18 -2 37 -18 37 -9 0 -13 3 -10 8 2 4 -14 7 -36 7 -23 0 -47 5
-53 12 -7 7 -15 9 -19 6 -3 -4 -6 0 -6 7 0 7 -3 11 -6 7 -3 -3 -17 5 -31 19
-13 13 -28 24 -33 24 -15 0 -29 63 -17 78 6 8 6 12 -2 12 -7 0 -9 5 -5 11 7
12 12 46 17 120 2 25 6 49 8 55 3 5 4 19 3 32 0 12 2 22 5 22 4 0 7 18 6 40
-1 22 3 40 8 40 4 0 5 4 2 10 -3 6 -3 10 2 10 4 0 9 17 9 38 2 46 12 93 24
107 4 5 6 48 4 95 -7 119 -5 170 6 170 9 0 9 6 14 173 2 81 1 147 -3 147 -3 0
-7 17 -8 37 l-2 37 25 -30 c13 -16 31 -41 39 -56 20 -37 34 -35 85 10 24 20
47 36 52 35 4 -2 8 3 8 10 0 20 41 38 77 33 26 -4 38 2 63 27 38 38 55 67 41
67 -6 0 -8 7 -4 15 3 9 8 14 10 11 3 -3 11 0 18 7 6 7 38 35 71 62 102 87 98
79 63 117 -39 42 -49 54 -85 103 -16 22 -41 54 -56 70 -16 17 -28 36 -28 44 0
8 -3 12 -6 8 -3 -3 -22 15 -41 41 -20 26 -39 51 -43 55 -3 4 -19 -2 -33 -13
-15 -12 -27 -19 -27 -16 0 3 -8 -2 -18 -11 -32 -30 -72 -63 -72 -58 0 2 -12
-7 -26 -20 -15 -14 -30 -22 -34 -20 -4 3 -10 -2 -14 -10 -8 -23 -36 -18 -45 8
-5 12 -7 25 -4 30 2 4 -1 7 -7 7 -6 0 -8 5 -5 10 3 6 2 10 -4 10 -5 0 -8 8 -6
18 1 9 -2 22 -7 29 -5 7 -9 85 -9 175 1 90 1 182 1 204 -1 31 4 44 17 49 10 5
20 9 23 10 3 2 14 6 26 10 17 5 53 56 55 77 0 4 9 31 20 60 21 58 24 89 10
116 -5 9 -14 29 -22 45 -7 15 -18 27 -26 27 -7 0 -21 7 -32 17 -35 29 -115 34
-172 9 -32 -14 -97 -186 -70 -186 4 0 7 -9 8 -20 1 -11 -3 -20 -9 -20 -7 0 -6
-5 2 -15 7 -8 10 -21 7 -29 -3 -8 -1 -16 5 -18 14 -5 20 -68 7 -68 -6 0 -7 -4
-4 -10 3 -5 2 -10 -2 -10 -5 0 -41 -30 -80 -67 -66 -63 -131 -162 -116 -177 4
-3 1 -6 -5 -6 -6 0 -16 -18 -22 -40 -6 -21 -17 -46 -25 -54 -9 -8 -14 -19 -13
-23 1 -4 -6 -22 -15 -40 -9 -18 -17 -39 -17 -48 0 -10 -5 -13 -12 -9 -6 4 -8
3 -5 -3 4 -6 0 -30 -9 -54 -18 -52 -25 -81 -29 -129 -1 -19 -3 -35 -4 -35 -4
0 -14 -112 -14 -160 0 -27 3 -69 7 -92 5 -31 4 -43 -5 -43 -7 0 -10 -3 -7 -6
3 -3 -5 -16 -18 -29 -13 -13 -24 -30 -24 -38 0 -14 66 -77 80 -77 9 0 74 75
79 91 3 12 6 43 10 127 1 14 5 21 12 16 8 -4 8 0 0 15 -7 11 -8 21 -4 21 5 0
10 12 11 26 1 15 11 45 21 68 41 88 51 115 51 136 0 12 5 20 12 18 13 -5 16
-57 4 -76 -4 -7 -4 -12 0 -12 3 0 0 -8 -7 -17 -12 -14 -12 -16 0 -8 11 6 13 4
6 -11 -4 -10 -7 -27 -7 -38 1 -15 -18 -75 -45 -146 -4 -8 -5 -18 -5 -22 1 -5
-2 -8 -7 -8 -15 0 -4 -76 14 -104 10 -14 14 -26 11 -26 -4 0 0 -10 8 -21 10
-15 12 -28 6 -45 -5 -13 -7 -24 -4 -24 4 0 1 -7 -6 -15 -7 -8 -10 -15 -7 -15
3 0 1 -15 -4 -32 -6 -18 -12 -42 -14 -53 -2 -11 -10 -46 -18 -77 -8 -32 -12
-58 -9 -58 3 0 1 -5 -6 -12 -7 -7 -12 -18 -12 -25 0 -7 -20 -33 -44 -58 -24
-25 -42 -45 -39 -45 3 0 -8 -15 -23 -33 -16 -18 -40 -49 -54 -70 -14 -20 -28
-37 -32 -37 -5 0 -8 -6 -8 -12 -1 -13 -45 -68 -55 -68 -3 0 -5 6 -5 13 0 6 -7
25 -15 41 -8 15 -13 32 -10 36 3 4 -2 13 -10 20 -8 7 -12 16 -10 21 3 4 -4 27
-16 50 -11 23 -28 65 -36 93 -8 28 -19 56 -23 61 -4 6 -6 18 -5 28 2 9 -1 17
-6 17 -5 0 -9 9 -9 20 0 11 -5 20 -11 20 -5 0 -8 4 -5 8 3 5 -4 25 -14 45 -11
21 -17 37 -14 37 4 0 2 6 -3 13 -6 6 -16 33 -24 60 -7 26 -16 47 -19 47 -3 0
-7 12 -8 26 -1 14 -5 31 -9 37 -4 7 -8 17 -10 22 -7 34 -12 53 -20 75 -5 14
-9 53 -9 87 1 35 -1 63 -4 63 -3 0 -7 11 -8 25 -2 25 11 34 23 15 3 -5 28 -20
56 -31 27 -12 49 -26 49 -31 0 -5 5 -6 10 -3 6 3 10 1 10 -4 0 -6 7 -11 15
-11 8 0 15 -7 15 -16 0 -8 5 -12 10 -9 6 3 10 2 10 -2 0 -5 15 -26 34 -48 19
-22 32 -43 30 -47 -2 -3 18 -6 45 -5 43 2 52 6 62 27 25 50 14 74 -54 120 -29
19 -54 38 -57 41 -3 4 -28 18 -56 32 -44 22 -120 87 -149 128 -31 43 -42 66
-38 84 2 11 5 29 7 40 2 11 8 32 15 48 16 41 21 77 10 77 -6 0 -8 4 -4 9 3 5
-4 25 -15 43 -11 18 -24 44 -30 57 -6 13 -20 37 -31 53 -12 16 -18 35 -15 43
2 7 1 15 -4 17 -6 2 -11 15 -12 31 -1 15 -7 27 -13 27 -5 0 -3 5 5 10 9 6 10
10 3 10 -8 0 -10 10 -6 28 3 15 6 39 7 55 0 19 6 27 18 28 10 1 22 2 27 3 23
3 73 59 68 76 -3 11 1 21 10 24 9 4 12 13 8 26 -4 12 -2 20 5 20 8 0 11 24 9
73 -2 59 -7 78 -27 105 -27 35 -85 68 -101 57 -6 -3 -11 -2 -11 3 0 6 -14 7
-32 3 -18 -4 -42 -7 -53 -6 -22 0 -53 -32 -81 -85 -19 -37 -20 -39 -29 -82 -3
-15 -10 -40 -17 -55 -6 -16 -12 -35 -14 -43 -1 -8 -5 -26 -8 -40 -4 -14 -8
-39 -10 -56 -2 -17 -6 -36 -10 -43 -4 -6 -5 -15 -1 -20 3 -5 1 -12 -3 -15 -5
-3 -7 -18 -4 -32 3 -15 1 -24 -4 -21 -5 3 -8 -15 -7 -39 1 -30 -5 -52 -19 -69
-11 -14 -17 -25 -13 -25 3 0 -3 -9 -14 -21 -10 -11 -18 -28 -16 -37 1 -9 -2
-26 -8 -37 -6 -11 -10 -24 -8 -30 1 -5 -5 -3 -13 5 -8 8 -17 24 -18 35 -2 11
-7 25 -11 32 -4 6 -8 23 -9 37 -1 14 -6 26 -10 26 -3 0 -6 12 -6 28 0 15 -9
51 -21 81 -12 33 -17 59 -12 65 12 14 12 28 -1 44 -13 15 -5 25 24 28 40 4 76
22 88 44 6 11 7 20 3 20 -4 0 -2 4 6 9 8 5 16 18 18 28 7 29 9 157 3 168 -2 6
-6 19 -7 29 -2 11 -9 26 -15 34 -13 16 -58 36 -72 33 -5 -1 -22 3 -37 8 -21 7
-29 7 -29 -2 0 -7 -4 -6 -10 3 -7 11 -10 11 -10 2 0 -7 -4 -11 -9 -8 -18 12
-68 -28 -94 -74 -15 -26 -24 -50 -20 -54 3 -3 1 -6 -6 -6 -7 0 -9 -10 -5 -27
3 -16 7 -37 9 -48 2 -11 6 -33 10 -50 15 -69 14 -79 -16 -112 -16 -19 -29 -31
-29 -28 0 3 -15 -8 -32 -25 -18 -16 -41 -33 -50 -36 -10 -3 -18 -10 -18 -15 0
-6 -4 -8 -9 -4 -6 3 -15 -4 -21 -16 -7 -11 -14 -18 -17 -15 -9 9 -53 -60 -59
-94 -4 -16 -10 -30 -14 -30 -4 0 -11 -15 -15 -32 -10 -43 -9 -40 -23 -64 -6
-12 -8 -24 -5 -28 3 -3 1 -6 -4 -6 -6 0 -10 -11 -8 -25 1 -14 -1 -25 -6 -25
-4 0 -13 -17 -19 -37 -6 -21 -14 -45 -17 -53 -4 -8 -7 -18 -8 -22 -2 -5 -3 -9
-5 -10 -5 -7 -12 -46 -14 -70 0 -16 -5 -28 -9 -28 -5 0 -5 -6 -2 -12 3 -7 -2
-2 -12 12 -10 14 -27 34 -38 45 -18 19 -20 34 -19 138 0 73 -4 117 -10 117 -6
0 -5 5 2 12 7 7 8 17 3 27 -5 9 -9 18 -9 21 -1 3 -12 31 -27 63 -14 32 -23 63
-20 68 4 5 1 9 -5 9 -7 0 -10 7 -7 15 4 8 2 17 -3 20 -6 3 -5 16 0 31 6 14 8
30 4 35 -3 5 0 9 5 9 6 0 10 6 8 12 -1 7 8 14 21 16 12 2 22 8 22 13 0 6 5 7
10 4 6 -3 10 1 10 9 0 9 5 16 10 16 6 0 10 7 10 15 0 8 4 15 10 15 5 0 10 3 9
8 -2 12 13 52 20 52 3 0 6 21 6 48 0 26 5 50 10 54 6 5 6 8 -1 8 -6 0 -10 11
-9 25 2 14 0 25 -4 25 -4 0 -7 9 -8 19 -2 24 -42 71 -60 71 -8 0 -12 4 -8 9 3
6 -4 8 -15 6 -11 -2 -20 0 -20 4 0 4 -20 5 -44 1 -24 -3 -53 -6 -65 -5 -11 1
-19 0 -17 -3 3 -2 -8 -15 -24 -29 -30 -24 -46 -74 -42 -123 1 -14 3 -32 4 -40
0 -8 5 -20 10 -27 6 -7 5 -14 -2 -18 -8 -5 -8 -10 0 -20 8 -9 8 -15 0 -20 -6
-3 -7 -12 -3 -18 9 -15 14 -41 5 -33 -8 8 -33 -75 -26 -86 3 -4 0 -8 -5 -8 -6
0 -11 -7 -11 -15 0 -8 -4 -15 -10 -15 -5 0 -10 -7 -10 -15 0 -8 -4 -15 -10
-15 -5 0 -10 -6 -10 -14 0 -7 -7 -19 -15 -26 -19 -16 -66 -123 -70 -160 0 -3
-8 -16 -18 -30 -18 -25 -19 -25 -20 13 -1 12 -5 27 -9 32 -5 6 -17 21 -28 34
-11 13 -20 30 -20 38 0 12 -19 52 -30 63 -3 3 -6 10 -7 15 -1 6 -10 30 -18 54
-17 48 -13 76 10 67 8 -3 15 -1 15 5 0 6 4 8 9 5 4 -3 19 9 32 26 13 17 30 37
37 44 6 7 12 19 12 26 0 8 5 19 10 24 6 6 13 21 16 35 9 40 11 139 2 139 -4 0
-8 8 -8 18 0 33 -62 71 -122 76 -3 1 -10 4 -14 8 -4 4 -13 3 -19 -2 -7 -6 -24
-11 -39 -12 -14 -1 -26 -6 -26 -10 0 -4 -7 -8 -16 -8 -8 0 -13 -4 -10 -8 3 -5
-4 -16 -16 -26 -20 -17 -21 -17 -53 16 -18 18 -38 34 -44 34 -6 1 -12 2 -13 4
-9 7 -48 5 -48 -2 0 -5 -5 -6 -12 -2 -6 4 -36 9 -67 10 -30 2 -61 6 -68 8 -7
3 -13 1 -13 -5 0 -6 -7 -6 -20 1 -11 6 -20 7 -20 2 0 -5 -22 -6 -50 -2 -27 4
-50 4 -50 0 0 -4 -22 -4 -50 0 -28 4 -50 3 -50 -2 0 -5 -9 -4 -20 2 -11 6 -20
7 -20 2 0 -5 -22 -6 -50 -2 -27 4 -50 4 -50 0 0 -4 -22 -4 -50 0 -27 4 -50 3
-50 -2 0 -5 -9 -4 -20 2 -11 6 -20 7 -20 2 0 -5 -22 -6 -50 -2 -27 4 -50 4
-50 0 0 -4 -22 -4 -50 0 -27 4 -50 3 -50 -2 0 -5 -9 -4 -20 2 -11 6 -20 7 -20
2 0 -5 -23 -6 -50 -2 -28 4 -50 4 -50 0 0 -4 -23 -4 -50 0 -27 4 -50 3 -50 -2
0 -5 -9 -4 -20 2 -12 6 -20 7 -20 1 0 -6 -11 -6 -30 -1 -17 5 -30 5 -30 1 0
-5 -18 -5 -40 -1 -22 4 -40 4 -40 0 0 -4 -18 -4 -40 0 -22 4 -40 4 -40 0 0 -4
-18 -4 -40 0 -22 4 -40 4 -40 0 0 -4 -18 -4 -40 0 -22 4 -40 4 -40 0 0 -4 -18
-4 -40 0 -22 4 -40 4 -40 0 0 -4 -18 -4 -40 0 -22 4 -40 4 -40 0 0 -4 -18 -4
-40 0 -22 4 -40 4 -40 1 0 -4 -27 -4 -60 -1 -33 3 -60 3 -60 0 0 -4 -22 -4
-50 0 -27 4 -50 3 -50 -2 0 -5 -9 -4 -20 2 -11 6 -20 7 -20 2 0 -5 -22 -6 -50
-2 -27 4 -50 4 -50 0 0 -4 -22 -4 -50 0 -27 4 -50 3 -50 -2 0 -5 -9 -4 -20 2
-11 6 -20 7 -20 2 0 -5 -22 -6 -50 -2 -28 4 -50 4 -50 1 0 -3 -36 -4 -80 -1
-44 3 -80 2 -80 -1 0 -3 -22 -3 -50 1 -27 4 -50 3 -50 -2 0 -5 -9 -4 -20 2
-11 6 -20 7 -20 2 0 -5 -22 -6 -50 -2 -27 4 -50 4 -50 0 0 -4 -22 -4 -50 0
-27 4 -50 3 -50 -2 0 -5 -9 -4 -20 2 -11 6 -20 7 -20 2 0 -5 -22 -6 -50 -2
-27 4 -50 4 -50 0 0 -3 -27 -3 -60 0 -33 3 -60 3 -60 -1 0 -3 -18 -3 -40 1
-22 4 -40 4 -40 0 0 -4 -18 -4 -40 0 -22 4 -40 4 -40 0 0 -4 -18 -4 -40 0 -22
4 -40 4 -40 0 0 -4 -18 -4 -40 0 -22 4 -40 4 -40 0 0 -4 -18 -4 -40 0 -22 4
-40 4 -40 0 0 -4 -18 -4 -40 0 -22 4 -40 4 -40 0 0 -4 -18 -4 -40 0 -22 4 -40
4 -40 -1 0 -4 -14 -4 -30 1 -19 5 -30 5 -30 -1 0 -6 -8 -5 -20 1 -11 6 -20 7
-20 2 0 -5 -22 -6 -50 -2 -27 4 -50 4 -50 0 0 -4 -23 -4 -50 0 -28 4 -50 3
-50 -2 0 -5 -9 -4 -20 2 -11 6 -20 7 -20 2 0 -5 -22 -6 -50 -2 -27 4 -50 4
-50 0 0 -4 -22 -4 -50 0 -27 4 -50 3 -50 -2 0 -5 -9 -4 -20 2 -11 6 -20 7 -20
2 0 -5 -22 -6 -50 -2 -27 4 -50 4 -50 0 0 -4 -22 -4 -50 0 -27 4 -50 3 -50 -2
0 -5 -9 -4 -20 2 -11 6 -20 7 -20 2 0 -5 -22 -6 -50 -2 -27 4 -50 4 -50 0 0
-4 -22 -4 -50 0 -27 4 -50 3 -50 -2 0 -5 -9 -4 -20 2 -11 6 -20 7 -20 2 0 -5
-22 -6 -50 -2 -27 4 -50 4 -50 0 0 -4 -22 -4 -50 0 -27 4 -50 3 -50 -2 0 -5
-9 -4 -20 2 -12 6 -20 7 -20 1 0 -6 -11 -6 -30 -1 -16 5 -30 5 -30 1 0 -5 -18
-5 -40 -1 -22 4 -40 4 -40 0 0 -4 -18 -4 -40 0 -22 4 -40 4 -40 0 0 -4 -18 -4
-40 0 -22 4 -40 4 -40 0 0 -4 -18 -4 -40 0 -22 4 -40 4 -40 0 0 -4 -18 -4 -40
0 -22 4 -40 4 -40 0 0 -4 -18 -4 -40 0 -22 4 -40 4 -40 0 0 -4 -18 -4 -40 0
-22 4 -40 4 -40 0 0 -4 -18 -4 -40 0 -22 4 -40 4 -40 0 0 -4 -18 -4 -40 0 -22
4 -40 4 -40 0 0 -4 -18 -4 -40 0 -22 4 -40 4 -40 0 0 -4 -18 -4 -40 0 -22 4
-40 4 -40 0 0 -4 -18 -4 -40 0 -22 4 -40 4 -40 0 0 -4 -18 -4 -40 0 -22 4 -40
4 -40 0 0 -4 -18 -4 -40 0 -22 4 -40 4 -40 0 0 -4 -18 -4 -40 0 -22 4 -40 4
-40 -1 0 -4 -13 -4 -30 1 -19 5 -30 5 -30 -1 0 -6 -8 -5 -20 1 -11 6 -20 7
-20 2 0 -5 -22 -6 -50 -2 -27 4 -50 4 -50 0 0 -4 -22 -4 -50 0 -27 4 -50 3
-50 -2 0 -5 -9 -4 -20 2 -11 6 -20 7 -20 2 0 -5 -22 -6 -50 -2 -27 4 -50 4
-50 0 0 -4 -22 -4 -50 0 -27 4 -50 3 -50 -2 0 -5 -9 -4 -20 2 -11 6 -20 7 -20
2 0 -5 -23 -6 -50 -2 -28 4 -50 4 -50 0 0 -4 -23 -4 -50 0 -28 4 -50 3 -50 -2
0 -5 -9 -4 -20 2 -11 6 -20 7 -20 2 0 -5 -23 -6 -50 -2 -28 4 -50 4 -50 0 0
-4 -22 -4 -50 0 -27 4 -50 3 -50 -2 0 -5 -9 -4 -20 2 -11 6 -20 7 -20 2 0 -5
-22 -6 -50 -2 -27 4 -50 4 -50 0 0 -4 -22 -4 -50 0 -27 4 -50 3 -50 -2 0 -5
-9 -4 -20 2 -12 6 -20 7 -20 1 0 -6 -11 -6 -30 -1 -17 5 -30 5 -30 1 0 -5 -18
-5 -40 -1 -22 4 -40 4 -40 0 0 -4 -18 -4 -40 0 -22 4 -40 4 -40 0 0 -4 -18 -4
-40 0 -22 4 -40 4 -40 0 0 -4 -18 -4 -40 0 -22 4 -40 4 -40 0 0 -4 -18 -4 -40
0 -22 4 -40 4 -40 0 0 -4 -18 -4 -40 0 -22 4 -40 4 -40 0 0 -4 -18 -4 -40 0
-22 4 -40 4 -40 0 0 -4 -18 -4 -40 0 -22 4 -40 4 -40 0 0 -4 -18 -4 -40 0 -22
4 -40 4 -40 0 0 -4 -18 -4 -40 0 -22 4 -40 4 -40 0 0 -4 -18 -4 -40 0 -22 4
-40 4 -40 0 0 -4 -18 -4 -40 0 -22 4 -40 4 -40 0 0 -4 -18 -4 -40 0 -22 4 -40
4 -40 0 0 -4 -18 -4 -40 0 -22 4 -40 4 -40 0 0 -4 -18 -4 -40 0 -22 4 -40 4
-40 -1 0 -4 -13 -4 -30 1 -19 5 -30 5 -30 -1 0 -6 -8 -5 -20 1 -11 6 -20 7
-20 2 0 -5 -23 -6 -50 -2 -27 4 -50 4 -50 0 0 -4 -22 -4 -50 0 -27 4 -50 3
-50 -2 0 -5 -9 -4 -20 2 -11 6 -20 7 -20 2 0 -5 -22 -6 -50 -2 -28 4 -50 4
-50 0 0 -4 -22 -4 -50 0 -27 4 -50 3 -50 -2 0 -5 -9 -4 -20 2 -11 6 -20 7 -20
2 0 -5 -22 -6 -50 -2 -27 4 -50 4 -50 0 0 -4 -22 -4 -50 0 -27 4 -50 3 -50 -2
0 -5 -9 -4 -20 2 -11 6 -20 7 -20 2 0 -5 -23 -6 -50 -2 -28 4 -50 4 -50 0 0
-4 -22 -4 -50 0 -27 4 -50 3 -50 -2 0 -5 -9 -4 -20 2 -11 6 -20 7 -20 2 0 -5
-22 -6 -50 -2 -27 4 -50 4 -50 0 0 -4 -22 -4 -50 0 -27 4 -50 3 -50 -2 0 -5
-9 -4 -20 2 -12 6 -20 7 -20 1 0 -6 -11 -6 -30 -1 -17 5 -30 5 -30 1 0 -5 -18
-5 -40 -1 -22 4 -40 4 -40 0 0 -4 -18 -4 -40 0 -22 4 -40 4 -40 0 0 -4 -18 -4
-40 0 -22 4 -40 4 -40 0 0 -4 -18 -4 -40 0 -22 4 -40 4 -40 0 0 -4 -18 -4 -40
0 -22 4 -40 4 -40 0 0 -4 -18 -4 -40 0 -22 4 -40 4 -40 0 0 -4 -18 -4 -40 0
-22 4 -40 4 -40 0 0 -4 -18 -4 -40 0 -22 4 -40 4 -40 0 0 -4 -18 -4 -40 0 -22
4 -40 4 -40 0 0 -4 -18 -4 -40 0 -22 4 -40 4 -40 0 0 -4 -18 -4 -40 0 -22 4
-40 4 -40 0 0 -4 -18 -4 -40 0 -22 4 -40 4 -40 0 0 -4 -18 -4 -40 0 -22 4 -40
4 -40 0 0 -4 -18 -4 -40 0 -22 4 -40 4 -40 0 0 -4 -18 -4 -40 0 -22 4 -40 4
-40 -1 0 -4 -13 -4 -30 1 -19 5 -30 5 -30 -1 0 -6 -8 -5 -20 1 -11 6 -20 7
-20 2 0 -5 -22 -6 -50 -2 -27 4 -50 4 -50 0 0 -4 -22 -4 -50 0 -27 4 -50 3
-50 -2 0 -5 -9 -4 -20 2 -11 6 -20 7 -20 2 0 -5 -22 -6 -50 -2 -27 4 -50 4
-50 0 0 -4 -22 -4 -50 0 -27 4 -50 3 -50 -2 0 -5 -9 -4 -20 2 -11 6 -20 7 -20
2 0 -5 -22 -6 -50 -2 -27 4 -50 4 -50 0 0 -4 -22 -4 -50 0 -27 4 -50 3 -50 -2
0 -5 -9 -4 -20 2 -11 6 -20 7 -20 2 0 -5 -22 -6 -50 -2 -28 4 -50 4 -50 0 0
-4 -22 -4 -50 0 -27 4 -50 3 -50 -2 0 -5 -9 -4 -20 2 -11 6 -20 7 -20 2 0 -5
-22 -6 -50 -2 -27 4 -50 4 -50 0 0 -4 -22 -4 -50 0 -27 4 -50 3 -50 -2 0 -5
-9 -4 -20 2 -12 6 -20 7 -20 1 0 -6 -11 -6 -30 -1 -16 5 -30 5 -30 1 0 -5 -18
-5 -40 -1 -22 4 -40 4 -40 0 0 -4 -18 -4 -40 0 -22 4 -40 4 -40 0 0 -4 -18 -4
-40 0 -22 4 -40 4 -40 0 0 -4 -18 -4 -40 0 -22 4 -40 4 -40 0 0 -4 -18 -4 -40
0 -22 4 -40 4 -40 0 0 -4 -18 -4 -40 0 -22 4 -40 4 -40 0 0 -4 -18 -4 -40 0
-22 4 -40 4 -40 0z m13439 -300 c-1 -34 -5 -63 -9 -65 -4 -3 -6 -16 -5 -30 2
-14 -1 -25 -6 -25 -6 0 -8 -4 -5 -8 3 -5 -5 -19 -17 -33 -40 -43 -64 -84 -62
-101 2 -10 -1 -18 -6 -18 -5 0 -12 0 -16 0 -5 0 -9 9 -9 20 -1 11 -6 26 -12
33 -6 7 -9 24 -6 38 22 92 24 97 43 92 15 -4 28 8 54 47 20 29 33 59 30 66 -3
8 0 14 6 14 6 0 10 3 10 8 -2 12 1 22 7 22 3 0 4 -27 3 -60z m1359 -724 c1
-23 31 -84 50 -105 21 -22 32 -57 26 -83 -3 -13 -7 -50 -9 -83 -2 -33 -6 -71
-10 -85 -4 -14 -7 -31 -7 -37 -1 -7 -4 -13 -8 -13 -3 0 -6 -10 -7 -22 -1 -13
-9 -59 -18 -103 -9 -44 -17 -92 -18 -107 -1 -16 -5 -28 -9 -28 -3 0 -5 -8 -4
-17 2 -10 0 -30 -5 -45 -5 -19 -4 -28 4 -28 8 0 8 -3 -1 -9 -8 -4 -12 -17 -11
-27 2 -11 0 -25 -4 -31 -5 -8 -3 -13 5 -13 9 0 9 -3 -2 -10 -8 -5 -11 -10 -7
-10 10 0 -11 -40 -21 -40 -4 0 -7 113 -7 250 0 137 -4 250 -9 250 -5 0 -2 8 5
17 12 14 12 16 0 8 -10 -6 -12 -4 -6 5 8 13 12 44 14 118 1 31 4 41 14 36 9
-5 9 -4 0 6 -7 8 -9 19 -4 29 5 9 7 24 6 33 -2 10 1 21 6 24 6 3 5 11 -2 20
-9 11 -8 14 2 14 11 0 11 2 -1 10 -8 5 -10 10 -4 10 6 0 11 15 11 33 0 69 2
79 16 66 7 -7 14 -22 15 -33z m-620 -209 c24 -13 32 -25 33 -45 0 -15 3 -47 6
-72 7 -62 6 -77 -5 -137 -5 -29 -6 -50 -1 -48 7 5 23 -24 21 -37 -1 -5 9 -8
22 -8 13 0 26 -5 28 -11 6 -18 56 1 63 24 10 29 12 39 13 59 1 10 8 15 15 12
13 -5 14 -32 2 -139 -6 -62 -9 -77 -16 -90 -3 -5 -5 -25 -5 -42 1 -18 -2 -33
-6 -33 -5 0 -8 -9 -8 -19 0 -32 -11 -50 -26 -44 -8 3 -14 13 -14 23 0 9 -6 30
-14 46 -15 30 -37 85 -38 94 0 3 -5 14 -11 25 -6 11 -12 22 -13 25 0 3 -8 21
-16 40 -9 19 -14 38 -12 42 3 5 0 8 -6 8 -6 0 -8 5 -5 10 3 6 1 10 -5 10 -6 0
-10 6 -9 13 1 6 0 19 -3 27 -20 61 -24 79 -23 108 1 17 -3 32 -9 32 -6 0 -4 5
4 10 8 5 10 10 4 10 -12 0 -12 0 -16 76 -4 56 -1 58 50 31z m-201 -566 c2 -25
8 -44 21 -68 7 -13 10 -23 7 -23 -5 0 39 -72 60 -97 5 -7 16 -19 23 -27 6 -8
12 -20 12 -26 0 -5 5 -10 10 -10 6 0 10 -6 10 -14 0 -8 5 -16 12 -18 7 -3 -5
-26 -32 -60 -72 -90 -80 -101 -80 -113 0 -20 -20 20 -20 41 0 22 -56 141 -97
207 -13 20 -19 37 -13 37 5 0 9 3 8 8 -1 4 5 21 12 37 17 38 21 54 33 119 1 6
7 14 12 18 6 5 5 8 -3 8 -7 0 -10 4 -7 10 8 13 30 -8 32 -29z m518 -253 c-10
-115 -33 -234 -42 -225 -3 4 -9 30 -17 74 -1 7 -5 16 -9 19 -4 4 -7 16 -7 26
0 10 -4 18 -10 18 -17 0 -11 28 13 53 31 33 57 70 57 79 0 4 5 8 10 8 6 0 8
-21 5 -52z m1505 28 c-4 -13 -7 -35 -6 -50 2 -14 0 -26 -3 -26 -4 0 -8 -17 -9
-37 -4 -50 -6 -66 -14 -79 -4 -5 -6 -18 -4 -28 1 -10 -1 -38 -4 -62 -5 -29 -3
-44 4 -45 7 0 6 -2 -1 -5 -7 -3 -9 -12 -6 -21 3 -8 0 -19 -8 -24 -8 -5 -9 -9
-3 -9 13 0 18 -109 6 -111 -4 -1 -27 -2 -52 -3 -25 -1 -51 -6 -58 -10 -7 -4
-20 -2 -29 6 -12 9 -15 9 -9 1 10 -17 -26 -17 -42 -1 -7 7 -12 9 -12 4 0 -21
-59 32 -75 68 -28 63 -27 72 10 112 19 20 35 41 35 46 0 5 5 6 10 3 6 -3 10
-1 10 5 0 15 76 97 207 222 29 27 44 48 36 48 -7 0 17 19 24 20 1 0 -2 -11 -7
-24z m-2557 -129 c44 -83 43 -72 2 -149 -15 -28 -28 -16 -31 28 -1 21 -3 39
-4 39 -1 0 -4 13 -6 29 -2 16 -10 46 -18 67 -16 38 -12 73 6 67 5 -2 28 -38
51 -81z m342 -57 c-3 -5 -2 -10 4 -10 6 0 14 -12 17 -27 4 -16 18 -52 32 -81
l25 -54 -31 -25 c-28 -22 -31 -27 -20 -46 7 -12 13 -24 14 -27 2 -9 16 -45 32
-80 8 -19 15 -41 15 -47 0 -7 4 -13 9 -13 5 0 6 -4 3 -10 -3 -5 -1 -10 4 -10
6 0 11 -7 11 -15 0 -8 5 -15 10 -15 6 0 10 -7 10 -15 0 -12 -10 -14 -47 -11
-27 3 -50 5 -53 7 -3 1 -7 1 -10 1 -3 0 -11 6 -18 14 -11 12 -9 16 12 24 19 7
24 14 19 27 -8 20 -32 47 -45 49 -4 1 -10 3 -13 4 -8 4 -24 7 -41 9 -8 0 -12
6 -9 11 3 6 2 10 -3 10 -9 0 -12 16 -12 57 0 12 -4 25 -9 28 -6 3 -6 18 -1 35
5 19 5 32 -2 36 -6 4 -5 10 3 15 12 7 12 9 0 9 -11 0 -11 3 -1 15 10 12 10 15
0 15 -10 0 -10 3 -1 14 8 10 9 16 1 21 -12 8 67 95 87 95 8 0 11 -4 8 -10z
m475 -106 c0 -7 11 -33 24 -58 14 -26 21 -46 18 -46 -4 0 -2 -4 4 -8 5 -4 18
-23 27 -42 10 -19 29 -52 42 -72 23 -35 23 -37 5 -35 -11 1 -20 4 -20 8 0 3
-12 4 -27 2 -61 -9 -190 -9 -216 1 -15 6 -30 18 -33 28 -3 10 -9 18 -14 18
-15 0 -4 30 22 61 15 16 28 34 30 39 2 5 27 36 57 69 50 55 81 69 81 35z
m-1009 -16 c4 -37 21 -77 54 -125 23 -34 23 -38 8 -55 -9 -10 -12 -18 -7 -18
5 0 1 -5 -8 -11 -10 -5 -18 -16 -18 -24 0 -8 8 -24 18 -35 9 -11 16 -24 14
-27 -2 -4 4 -10 14 -13 10 -4 13 -9 7 -13 -13 -8 -137 109 -128 122 3 6 1 11
-4 11 -12 0 -15 33 -4 43 3 4 7 19 9 34 2 26 10 65 14 71 2 1 4 11 5 22 4 29
4 30 15 30 6 0 11 -6 11 -12z m294 -218 c2 -35 0 -38 -13 -28 -8 7 -18 12 -21
11 -11 -5 -7 22 7 45 19 29 25 22 27 -28z"/>
<path d="M18648 14875 c-21 -8 -38 -11 -38 -7 0 3 -8 -5 -17 -18 -10 -14 -17
-28 -15 -32 1 -5 -3 -8 -9 -8 -5 0 -8 -4 -5 -9 4 -5 2 -20 -3 -33 -5 -13 -5
-33 0 -45 5 -15 5 -23 -2 -23 -7 0 -7 -6 0 -17 6 -11 6 -24 0 -35 -6 -12 -6
-18 0 -18 7 0 7 -9 1 -25 -6 -17 -6 -25 1 -25 6 0 7 -5 4 -10 -4 -6 -9 -23
-12 -38 -3 -15 -6 -31 -7 -37 -5 -26 -41 -87 -53 -92 -7 -3 -13 -11 -13 -19 0
-8 -11 -31 -23 -52 -13 -20 -23 -46 -21 -56 1 -11 -6 -35 -17 -55 -18 -34 -62
-130 -64 -141 -1 -3 -15 -34 -32 -70 -29 -60 -50 -133 -45 -153 1 -4 -4 -10
-11 -13 -7 -2 -12 -17 -11 -34 1 -17 -3 -30 -8 -30 -6 0 -8 -6 -5 -14 3 -7 1
-18 -4 -23 -9 -9 -11 -22 -24 -123 -3 -30 -9 -62 -12 -70 -4 -8 -7 -17 -7 -20
-2 -9 -71 -145 -76 -150 -3 -3 -6 -22 -7 -43 -2 -33 2 -40 30 -57 17 -11 34
-15 35 -10 2 6 12 10 23 10 11 0 35 7 55 15 29 12 33 17 25 33 -6 11 -6 24 0
33 5 7 9 32 9 54 0 23 5 46 12 53 9 9 9 12 -1 12 -11 0 -11 3 -1 15 7 8 9 15
6 15 -4 0 -2 9 4 21 12 21 16 39 26 99 3 19 12 41 19 49 12 12 13 3 10 -55 -2
-38 -6 -80 -9 -94 -2 -14 -7 -50 -11 -81 -3 -31 -8 -67 -10 -80 -3 -13 -7 -42
-10 -63 -3 -22 -7 -42 -10 -44 -3 -3 1 -12 8 -20 9 -13 9 -14 0 -8 -9 5 -13 1
-14 -11 0 -10 -3 -27 -5 -38 -3 -11 -7 -49 -9 -85 -2 -36 -5 -67 -6 -70 -1 -3
-2 -9 -4 -15 -1 -5 -3 -12 -4 -15 -2 -3 -5 -18 -7 -34 -3 -16 -15 -43 -27 -60
-11 -16 -16 -26 -9 -22 8 5 10 2 6 -8 -3 -9 -10 -16 -15 -16 -4 0 -6 -7 -3
-15 4 -8 1 -15 -5 -15 -6 0 -11 -9 -11 -21 0 -11 -6 -33 -14 -47 -14 -26 -28
-61 -30 -73 -2 -12 -91 -145 -113 -169 -13 -14 -21 -31 -19 -37 3 -7 -3 -17
-12 -22 -9 -6 -13 -11 -9 -11 4 0 -1 -10 -12 -22 -11 -11 -18 -25 -15 -30 3
-4 0 -8 -5 -8 -6 0 -11 -7 -11 -15 0 -8 -4 -15 -8 -15 -14 0 -7 -35 11 -63 9
-15 17 -28 17 -31 0 -2 36 -41 80 -85 78 -80 80 -81 130 -81 30 0 50 4 50 11
0 6 6 9 14 6 8 -3 16 -1 19 6 3 11 -80 97 -95 97 -5 0 -7 4 -4 9 4 5 2 11 -3
13 -17 6 -22 76 -6 92 8 8 15 21 15 29 0 8 7 20 15 27 8 7 15 18 15 25 0 7 9
24 21 39 11 14 17 26 13 26 -4 0 2 8 13 18 19 17 118 152 118 162 0 5 18 31
82 118 23 31 46 62 50 68 19 25 37 61 60 123 25 64 30 85 32 126 1 17 3 18 16
4 9 -9 17 -25 18 -37 1 -12 5 -22 9 -22 4 0 5 -7 2 -15 -4 -8 -1 -15 5 -15 6
0 11 -7 11 -15 0 -8 5 -15 12 -15 6 0 9 -3 5 -6 -3 -4 1 -13 9 -21 8 -8 12
-18 9 -23 -3 -4 2 -10 10 -14 8 -3 15 -12 15 -20 0 -8 4 -16 8 -18 11 -4 112
-155 112 -167 0 -5 3 -11 8 -13 13 -5 62 -109 56 -119 -3 -5 -1 -9 5 -9 5 0
15 -15 21 -34 6 -19 17 -40 25 -46 8 -7 13 -16 10 -20 -3 -4 2 -13 10 -20 8
-7 15 -17 15 -22 0 -6 9 -22 20 -38 11 -15 17 -30 13 -34 -3 -3 -1 -6 5 -6 7
0 12 -6 12 -14 0 -8 7 -21 15 -30 9 -8 16 -18 15 -21 0 -3 7 -22 16 -43 9 -20
17 -42 18 -47 3 -17 30 -50 43 -52 7 -2 25 2 40 9 15 6 33 10 39 9 6 0 17 5
23 13 7 8 19 12 27 9 8 -3 14 0 14 5 0 6 9 9 20 7 11 -2 20 1 20 7 0 6 3 9 6
6 3 -4 21 0 40 8 19 8 34 12 34 10 0 -3 17 2 38 11 20 8 38 15 40 14 1 0 9 -1
17 -1 21 0 19 27 -3 50 -16 17 -30 19 -99 18 -45 -2 -79 -6 -77 -10 3 -4 -2
-5 -10 -2 -9 3 -13 11 -9 17 3 6 1 7 -6 3 -7 -5 -23 -5 -37 -2 -18 5 -34 27
-65 94 -23 48 -41 89 -39 91 1 2 -2 7 -7 10 -9 6 -56 114 -54 125 0 3 -6 21
-15 41 -8 19 -11 35 -7 35 5 0 3 4 -2 8 -6 4 -19 35 -30 70 -10 34 -22 62 -28
62 -5 0 -7 6 -4 13 3 7 -1 21 -9 31 -7 11 -11 23 -8 27 3 5 0 9 -5 9 -6 0 -10
3 -9 8 1 4 -4 23 -11 42 -8 19 -15 40 -16 46 -2 6 -11 28 -21 49 -9 20 -17 43
-17 51 0 8 -4 14 -9 14 -5 0 -7 4 -3 9 3 5 1 12 -5 16 -6 4 -8 11 -5 16 4 5 2
9 -3 9 -7 0 -36 90 -37 115 0 6 -3 12 -7 15 -4 3 -8 20 -10 38 -1 18 -7 32
-12 32 -5 0 -6 3 -3 7 4 3 1 13 -5 21 -7 8 -13 19 -14 26 -1 6 -5 25 -9 41
-11 56 -12 75 -3 81 5 3 5 11 -1 18 -6 7 -6 17 -1 26 5 8 5 19 0 25 -5 6 -5
17 1 25 8 12 12 12 16 2 2 -6 9 -10 14 -6 5 3 9 0 9 -5 0 -6 7 -11 15 -11 8 0
15 -4 15 -10 0 -5 7 -10 15 -10 22 0 144 -121 138 -137 -3 -7 0 -13 7 -13 6 0
8 -5 4 -11 -10 -16 76 -9 109 10 15 9 25 21 23 28 -3 7 -1 13 5 13 5 0 2 12
-8 28 -21 33 -39 52 -49 52 -3 0 -14 9 -23 19 -10 11 -24 21 -32 23 -8 2 -21
10 -29 18 -8 8 -21 16 -29 18 -7 2 -28 18 -46 37 -18 18 -36 31 -39 28 -3 -4
-6 -2 -6 3 0 5 -14 25 -30 44 -16 19 -30 39 -30 43 0 5 -4 6 -8 3 -5 -3 -14 5
-20 17 -20 39 -40 107 -32 107 5 0 5 14 0 30 -7 25 -6 30 8 30 11 0 13 3 6 8
-13 9 -25 52 -14 52 4 0 5 15 1 33 -4 17 -7 39 -6 47 0 8 -4 18 -10 22 -6 5
-4 8 5 8 9 0 11 3 5 8 -15 10 -35 49 -35 67 0 8 -4 15 -9 15 -9 0 -18 36 -26
103 -3 25 0 35 7 31 7 -5 8 -1 1 11 -11 19 -6 62 8 71 5 3 9 0 9 -5 0 -16 19
-9 51 19 35 32 77 143 74 196 -3 41 -11 89 -14 89 -2 0 -4 8 -6 17 -2 10 -9
23 -17 30 -19 19 -68 39 -79 33 -5 -4 -9 -1 -9 4 0 15 -47 13 -92 -4z"/>
<path d="M23790 14875 c0 -8 4 -15 10 -15 5 0 7 7 4 15 -4 8 -8 15 -10 15 -2
0 -4 -7 -4 -15z"/>
<path d="M23829 14875 c-1 -5 -1 -16 0 -23 1 -7 -3 -11 -10 -10 -6 2 -14 -4
-16 -12 -4 -13 -3 -13 6 0 9 13 11 13 11 1 0 -11 4 -9 14 5 11 14 11 21 3 26
-7 4 2 6 18 5 17 -1 30 2 30 7 0 13 -55 14 -56 1z"/>
<path d="M23901 14867 c-7 -10 -19 -16 -27 -13 -8 3 -21 -5 -30 -20 -9 -13
-19 -22 -22 -19 -3 2 -10 1 -16 -5 -8 -6 -12 -2 -13 12 -3 29 -15 39 -33 27
-13 -9 -13 -10 2 -6 10 4 18 -1 21 -14 3 -10 1 -19 -5 -19 -5 0 -7 -4 -4 -9 9
-14 -5 -42 -17 -34 -6 4 -8 0 -4 -11 4 -9 3 -15 -2 -11 -5 3 -12 -1 -14 -7 -4
-10 -6 -9 -6 1 -1 11 -4 11 -15 1 -8 -6 -12 -18 -9 -27 5 -12 1 -14 -15 -8
-23 7 -31 -10 -9 -18 9 -4 9 -6 -1 -6 -7 -1 -22 4 -32 9 -13 7 -21 7 -25 0 -4
-6 -3 -10 2 -9 19 3 34 -2 28 -10 -3 -5 0 -13 6 -17 8 -5 9 -3 4 7 -8 12 -6
12 8 0 22 -18 22 -20 -7 -17 -18 2 -23 -1 -18 -12 4 -10 1 -13 -7 -8 -10 7
-10 4 0 -12 7 -12 9 -27 4 -38 -5 -11 -7 -22 -7 -26 1 -5 -4 -7 -10 -5 -8 1
-12 -6 -10 -18 2 -15 1 -17 -6 -6 -8 11 -12 10 -21 -5 -6 -11 -11 -15 -11 -10
0 5 8 19 17 30 10 12 14 18 9 14 -5 -4 -16 -2 -25 5 -14 10 -14 10 -5 -3 10
-12 6 -20 -17 -41 -16 -15 -29 -22 -29 -16 0 6 -3 8 -6 4 -3 -3 -2 -13 3 -22
8 -14 11 -12 22 11 6 15 15 24 18 20 4 -3 1 -12 -5 -18 -8 -8 -9 -15 0 -25 9
-11 7 -12 -7 -7 -14 6 -16 4 -10 -7 6 -10 3 -9 -11 2 -10 9 -25 14 -33 11 -10
-3 -7 -8 10 -18 13 -7 18 -13 12 -14 -7 0 -13 -12 -13 -26 0 -14 -4 -23 -8
-20 -4 2 -14 1 -21 -3 -9 -6 -10 -11 -2 -15 6 -4 11 -2 11 4 0 6 5 8 10 5 6
-4 8 -11 5 -16 -12 -18 -14 -50 -4 -43 6 3 9 -1 7 -9 -2 -9 6 -23 17 -32 19
-16 19 -16 -4 -5 -16 9 -26 9 -32 1 -5 -6 -6 -9 -3 -6 4 3 13 0 20 -6 14 -11
8 -39 -8 -39 -6 0 -5 6 2 15 7 9 8 15 2 15 -14 0 -23 -28 -11 -35 5 -4 7 -11
4 -16 -4 -5 0 -9 7 -9 9 0 9 -3 -2 -10 -13 -9 -13 -10 0 -10 11 0 12 -2 3 -8
-7 -4 -11 -18 -8 -31 5 -28 34 -63 46 -55 5 3 9 0 9 -5 0 -6 -6 -11 -12 -11
-9 0 -8 -3 2 -10 8 -5 15 -13 15 -17 1 -17 38 -63 46 -57 5 3 6 -2 2 -11 -5
-13 -7 -14 -14 -3 -7 10 -11 7 -15 -9 -4 -13 -11 -23 -18 -23 -6 0 -6 -4 2 -9
12 -7 12 -13 0 -36 -12 -23 -16 -25 -21 -11 -4 10 -3 15 3 11 13 -8 13 5 0 25
-8 13 -10 12 -10 -2 0 -10 -6 -18 -12 -18 -10 0 -10 -2 0 -9 8 -4 12 -17 10
-27 -2 -10 2 -19 9 -19 6 0 14 -3 18 -7 8 -8 -13 -4 -38 7 -15 6 -15 10 -5 23
8 10 9 13 1 9 -6 -4 -14 -1 -17 5 -2 7 -4 3 -2 -9 1 -11 8 -29 16 -39 14 -16
13 -16 -10 -4 -19 9 -22 10 -13 0 6 -7 9 -20 5 -29 -5 -14 -4 -14 13 -1 11 9
16 10 11 3 -4 -7 -2 -13 3 -13 6 0 11 -5 11 -11 0 -8 -5 -8 -15 1 -8 7 -15 9
-15 4 0 -5 -7 0 -15 10 -8 11 -15 15 -15 8 0 -7 9 -17 20 -24 11 -7 20 -17 20
-22 0 -4 -6 -3 -14 3 -9 8 -16 8 -20 2 -4 -6 -13 -8 -20 -5 -22 8 -28 -12 -8
-27 15 -12 16 -12 4 2 -11 14 -9 17 13 17 14 0 25 -5 25 -10 0 -5 -4 -6 -10
-3 -5 3 -11 1 -11 -4 -1 -6 -2 -15 -3 -20 0 -5 -5 -13 -10 -18 -5 -4 -6 -3 -3
3 4 7 -1 15 -11 19 -30 14 -39 13 -39 -1 0 -10 4 -11 14 -3 9 8 13 8 13 1 0
-6 -5 -14 -11 -17 -6 -4 -8 -13 -5 -21 3 -7 1 -16 -5 -19 -5 -4 -6 -12 -2 -18
5 -8 2 -8 -9 0 -17 14 -28 8 -28 -16 0 -14 2 -14 10 -1 5 8 10 10 10 4 0 -21
-14 -24 -37 -9 -13 9 -23 11 -23 5 0 -5 5 -10 10 -10 6 0 10 -5 10 -11 0 -5
-4 -8 -9 -4 -5 3 -12 1 -16 -4 -3 -6 5 -8 20 -5 14 2 25 0 25 -6 0 -6 -4 -8
-10 -5 -5 3 -10 2 -10 -4 0 -6 -6 -8 -14 -5 -8 3 -17 0 -22 -7 -4 -7 -3 -10 3
-6 6 4 13 -2 16 -13 3 -11 0 -18 -7 -17 -6 1 -10 -4 -8 -11 2 -10 -2 -10 -18
-2 -11 6 -18 16 -14 22 4 7 9 6 14 -2 5 -8 10 -8 14 -2 3 5 -1 12 -9 16 -8 3
-17 1 -20 -5 -4 -5 -11 -7 -16 -4 -5 3 -6 -2 -2 -11 5 -13 3 -15 -7 -9 -9 5
-11 4 -6 -4 4 -6 11 -9 15 -7 4 3 13 1 20 -3 9 -6 4 -8 -13 -8 -15 0 -33 8
-43 21 -12 17 -14 17 -9 3 3 -10 1 -28 -5 -39 -10 -18 -9 -20 7 -14 17 7 17 6
-1 -12 -11 -11 -23 -18 -27 -15 -5 2 -8 -6 -8 -18 0 -19 2 -20 18 -8 15 12 16
12 6 -1 -6 -8 -10 -25 -8 -37 2 -12 -1 -25 -6 -28 -6 -4 -7 -12 -4 -18 4 -7 3
-8 -1 -4 -12 10 -15 38 -4 31 5 -3 9 -1 9 3 0 5 -14 14 -32 21 l-31 11 22 -20
c19 -18 20 -23 9 -37 -10 -12 -10 -14 0 -8 7 4 12 1 12 -9 0 -8 10 -20 23 -26
l22 -10 -22 5 c-13 2 -26 0 -29 -5 -5 -8 10 -13 29 -10 5 1 6 -3 2 -9 -4 -6
-15 -8 -25 -5 -10 3 -21 1 -25 -4 -3 -7 0 -8 9 -5 9 3 16 1 16 -5 0 -6 -5 -11
-12 -11 -9 0 -9 -3 0 -12 7 -7 12 -18 12 -26 0 -12 -3 -12 -17 -1 -15 13 -15
12 0 -12 15 -23 15 -27 1 -47 -14 -20 -14 -23 0 -28 9 -3 13 -11 9 -17 -3 -6
-1 -7 6 -3 8 5 11 -2 9 -23 -1 -17 -7 -31 -13 -31 -5 -1 1 -7 15 -15 l25 -15
-27 4 c-16 3 -28 0 -28 -5 0 -5 6 -9 13 -7 6 1 22 -2 35 -6 19 -6 21 -10 11
-22 -8 -10 -8 -14 0 -14 6 0 11 -5 11 -11 0 -8 -4 -8 -14 0 -11 9 -13 7 -13
-13 0 -18 4 -23 16 -19 13 4 13 3 2 -5 -8 -6 -21 -8 -29 -4 -11 4 -13 2 -7 -8
6 -10 4 -12 -11 -7 -17 6 -17 5 -3 -5 8 -7 18 -21 22 -31 4 -11 12 -15 19 -11
10 6 10 4 2 -7 -6 -8 -10 -22 -9 -32 2 -9 -1 -15 -6 -11 -5 3 -7 9 -5 13 3 3
-4 7 -15 7 -19 0 -19 -1 -2 -13 10 -8 18 -21 18 -30 0 -11 9 -17 27 -18 15 -1
33 -7 41 -13 8 -7 17 -9 21 -5 4 4 12 1 17 -7 10 -13 10 -13 6 0 -2 8 7 23 20
34 l25 19 -18 -29 c-18 -29 -18 -29 2 -11 29 24 41 21 18 -5 -12 -14 -13 -18
-3 -10 9 6 20 8 24 4 5 -4 5 -1 1 6 -6 10 -1 11 18 6 16 -4 26 -2 26 5 0 6 -6
8 -14 5 -8 -3 -16 -1 -20 4 -3 5 5 8 17 7 12 -1 25 2 28 7 3 5 9 2 12 -7 4 -9
3 -13 -3 -10 -6 3 -10 1 -10 -5 0 -7 7 -9 16 -6 9 3 18 6 20 6 3 0 3 4 -1 9
-3 5 0 13 6 17 7 4 9 3 6 -3 -4 -6 5 -15 18 -21 15 -7 26 -8 30 -2 11 19 34
11 30 -10 -2 -11 1 -20 7 -20 5 0 8 7 5 15 -9 21 10 28 22 8 6 -10 11 -13 11
-7 0 5 -5 15 -11 21 -8 8 -7 13 2 18 8 5 10 4 5 -3 -5 -8 1 -12 16 -12 19 0
20 -2 8 -11 -12 -9 -11 -9 5 -4 11 4 30 7 42 7 12 -1 24 2 27 7 3 5 -9 7 -27
6 -17 -2 -39 1 -47 6 -11 7 -8 8 9 3 17 -4 21 -3 16 6 -6 10 -4 11 6 4 8 -5
23 -9 33 -9 11 0 20 -8 22 -17 1 -10 -2 -18 -7 -18 -6 0 -7 -5 -3 -11 4 -8 9
-7 15 2 4 7 5 17 3 21 -10 16 5 7 37 -23 18 -17 35 -26 37 -20 2 6 8 11 13 11
4 0 6 -8 3 -17 -5 -14 -4 -15 4 -4 6 8 8 20 5 28 -3 7 0 13 7 13 6 0 8 -4 5
-10 -6 -9 8 -14 28 -11 4 0 6 -2 6 -6 -3 -20 2 -26 11 -13 8 11 9 9 5 -11 -5
-21 -2 -28 17 -34 13 -4 26 -7 31 -6 4 1 7 -3 7 -9 0 -13 -6 -13 -31 1 -18 9
-19 8 -10 -9 6 -11 8 -21 6 -24 -2 -2 5 -5 17 -5 20 -2 20 -1 2 13 -18 15 -18
15 1 6 11 -5 28 -8 38 -7 9 2 17 -1 17 -7 0 -6 -6 -8 -14 -5 -8 3 -17 -1 -20
-9 -3 -8 -1 -14 4 -14 5 0 7 -8 4 -17 -5 -15 -4 -15 4 -3 6 8 8 18 6 22 -3 4
0 8 5 8 6 0 11 -6 11 -14 0 -8 6 -16 14 -19 9 -4 12 -14 9 -26 -3 -13 -1 -21
6 -21 7 0 9 6 5 13 -4 7 -3 9 2 4 5 -5 9 -14 9 -20 0 -7 9 -11 20 -10 11 1 14
0 7 -3 -6 -3 -10 -10 -7 -14 3 -5 0 -12 -7 -16 -7 -4 -10 -4 -6 1 9 10 -10 35
-25 35 -6 0 -2 -7 9 -16 19 -15 19 -16 -1 -10 -19 6 -19 5 -3 -7 10 -8 14 -17
10 -21 -4 -4 0 -6 8 -4 11 2 14 -4 13 -22 -2 -22 -2 -23 6 -5 5 12 5 25 -1 33
-7 8 -7 12 1 12 6 0 11 -4 11 -10 0 -22 2 -25 23 -38 21 -12 21 -13 2 -9 -11
2 -27 -3 -35 -11 -13 -14 -12 -15 3 -9 21 8 34 -12 16 -25 -11 -8 -10 -8 4 -4
15 5 17 2 12 -17 -5 -17 -4 -18 4 -7 5 8 13 12 16 8 3 -3 -1 -13 -10 -22 -9
-9 -12 -16 -6 -16 5 0 13 5 17 11 5 8 10 6 16 -6 7 -12 6 -21 -2 -28 -10 -10
-11 -8 -6 8 6 15 4 17 -5 8 -12 -12 -3 -37 11 -28 5 3 12 1 15 -5 5 -8 11 -8
20 0 9 8 12 4 10 -15 -2 -14 1 -23 6 -19 5 3 6 10 3 16 -4 6 -2 8 4 4 6 -3 13
-2 17 4 3 5 10 10 16 10 5 0 0 -9 -11 -20 -22 -22 -26 -40 -9 -40 5 0 7 -5 3
-12 -4 -7 -3 -8 4 -4 7 4 12 2 12 -5 0 -7 3 -9 6 -6 4 3 15 2 25 -4 11 -5 19
-6 19 -1 0 7 39 8 48 2 6 -6 30 -5 54 1 15 4 30 3 34 -2 3 -5 10 -7 15 -3 20
12 69 13 69 1 0 -8 3 -8 8 -2 10 14 32 17 32 5 0 -5 7 -7 15 -4 8 4 12 11 8
18 -3 6 -1 6 8 -1 16 -16 39 -17 39 -2 0 5 -5 7 -12 3 -7 -5 -8 -3 -3 5 5 9
12 7 27 -8 10 -12 23 -19 28 -16 20 12 75 14 82 2 5 -8 8 -6 8 6 0 14 4 16 19
7 14 -7 22 -7 27 2 5 7 3 8 -6 3 -10 -6 -12 -4 -7 8 3 9 1 19 -5 23 -7 5 -8 2
-3 -6 6 -9 4 -11 -5 -5 -8 5 -11 4 -7 -1 7 -12 -50 -11 -75 0 -10 5 -18 13
-18 19 0 5 8 3 18 -6 10 -10 24 -17 31 -17 7 0 3 8 -9 18 -21 17 -21 18 -4 32
17 14 18 13 6 -2 -10 -12 -10 -18 -1 -23 6 -4 16 -1 21 6 8 11 9 10 4 -3 -3
-10 -1 -20 4 -23 6 -4 10 -2 10 3 0 5 12 15 28 23 15 8 31 18 35 24 5 6 7 3 3
-7 -6 -21 4 -23 24 -5 12 10 12 9 1 -5 -18 -24 -5 -22 32 4 22 15 28 17 18 5
-8 -11 -9 -17 -3 -17 6 0 9 -8 6 -17 -5 -15 -4 -16 5 -3 5 8 18 15 27 15 10 0
19 6 22 14 3 10 0 11 -9 5 -23 -14 -38 -13 -32 3 3 8 12 12 20 8 11 -4 14 0 9
12 -5 16 -5 16 6 2 7 -9 20 -15 29 -14 9 2 23 -1 30 -6 10 -7 5 -8 -14 -5 -24
4 -27 3 -17 -9 9 -11 17 -12 30 -5 26 14 33 27 19 36 -8 5 -9 3 -4 -6 6 -9 4
-11 -4 -6 -13 9 -6 21 12 21 7 1 11 6 10 12 -3 12 29 11 62 -2 16 -7 15 -4 -5
14 -22 20 -23 21 -3 12 28 -14 54 -15 33 -1 -13 8 -13 12 1 37 9 15 14 35 12
43 -3 9 1 7 11 -5 8 -11 16 -16 16 -11 0 5 7 3 15 -4 8 -7 15 -8 15 -3 0 6
-10 14 -22 20 -19 8 -20 10 -4 16 9 4 15 3 12 -1 -3 -5 1 -9 9 -9 8 0 13 3 10
6 -3 3 5 10 17 17 23 12 23 12 -4 11 -14 -1 -24 -5 -22 -9 2 -3 -6 -4 -18 0
-19 5 -20 6 -4 12 10 3 17 10 16 15 -1 5 3 11 9 13 6 2 11 -1 11 -8 0 -6 -5
-8 -12 -4 -7 4 -8 3 -4 -4 5 -9 13 -9 27 -2 10 6 19 13 19 16 0 3 -4 3 -9 -1
-6 -3 -9 4 -8 15 1 14 6 19 17 15 9 -3 8 1 -4 10 -13 10 -15 15 -6 15 7 0 11
3 8 6 -4 3 -15 1 -27 -5 -14 -8 -22 -8 -27 1 -4 6 -3 8 3 5 6 -4 16 0 23 8 7
8 17 12 23 8 5 -3 7 -1 3 5 -3 5 0 13 6 15 10 4 10 6 0 6 -7 1 -11 5 -7 10 3
5 1 12 -4 15 -4 3 -8 -4 -7 -17 1 -16 -5 -22 -21 -23 -12 -1 -20 2 -17 7 2 4
12 5 22 2 14 -6 15 -4 4 9 -10 12 -10 18 2 28 9 6 19 9 24 6 5 -3 18 2 28 10
10 9 15 13 9 11 -5 -2 -18 4 -29 14 -18 17 -17 18 5 12 13 -3 30 -10 37 -16 8
-6 12 -6 12 2 0 6 -5 11 -11 11 -5 0 -7 5 -4 10 4 6 10 8 15 5 5 -3 11 -1 15
5 4 6 11 8 16 5 5 -4 9 -2 9 4 0 5 -6 11 -12 14 -7 2 -10 8 -6 12 4 4 16 2 25
-6 16 -13 17 -12 4 4 -7 9 -10 17 -5 17 5 0 0 7 -10 15 -11 8 -15 15 -9 15 7
0 14 -4 17 -9 6 -8 46 -22 46 -16 0 2 -8 12 -17 21 -17 17 -17 18 0 11 15 -6
17 -3 12 16 -7 21 -7 21 8 2 8 -10 13 -25 10 -31 -2 -7 1 -15 8 -20 8 -4 10
-3 5 5 -4 6 0 24 10 39 15 24 16 25 1 13 -11 -9 -17 -10 -17 -2 0 6 5 11 11
11 5 0 7 6 3 13 -5 8 -2 7 10 -2 9 -8 15 -20 12 -27 -3 -7 0 -16 6 -20 6 -4 8
-3 4 4 -3 6 1 18 10 26 8 9 11 16 5 16 -6 0 -11 8 -10 18 0 10 3 12 6 5 2 -7
9 -13 14 -13 4 0 6 6 3 14 -3 8 -1 17 5 20 6 4 8 14 5 24 -5 14 -4 15 5 2 10
-14 16 -7 11 15 -1 6 2 7 6 3 4 -4 14 -2 22 5 10 8 13 8 9 1 -4 -7 0 -14 8
-17 16 -7 9 22 -9 36 -7 6 -4 7 7 3 10 -3 17 0 17 7 0 8 3 8 9 -2 7 -11 10
-11 15 0 3 8 3 3 0 -11 -5 -20 -4 -23 7 -12 15 14 53 17 44 3 -3 -5 -1 -13 5
-16 6 -4 10 -3 9 2 -3 20 2 25 16 13 8 -7 12 -17 8 -23 -3 -6 -1 -7 5 -3 17
10 -9 48 -28 41 -9 -3 -7 1 4 10 11 8 25 15 30 14 6 0 5 -3 -2 -6 -6 -2 -10
-9 -7 -13 3 -5 13 -6 22 -3 12 5 14 3 8 -8 -4 -8 -5 -11 0 -7 4 4 15 2 24 -4
9 -7 6 -1 -7 14 -15 17 -20 28 -13 33 6 3 8 11 5 17 -4 7 -2 8 5 4 9 -6 9 -11
0 -22 -14 -17 2 -19 19 -2 7 7 12 8 12 2 0 -5 5 -2 10 6 7 12 9 10 8 -7 -2
-15 -7 -20 -22 -17 -13 2 -16 0 -9 -7 5 -5 20 -11 31 -12 13 -1 28 -14 38 -32
11 -22 14 -24 11 -7 -3 12 -1 22 5 22 5 0 6 5 2 11 -3 6 5 4 19 -6 17 -11 24
-22 20 -33 -6 -15 -5 -15 10 -3 9 7 17 9 17 3 0 -14 -28 -23 -35 -12 -4 6 -4
14 -1 19 3 5 0 11 -8 14 -10 4 -13 -2 -12 -18 0 -13 6 -23 11 -22 6 1 9 -3 8
-8 -1 -6 7 -11 17 -11 10 0 16 5 13 10 -3 5 -1 6 6 2 7 -4 9 -17 6 -29 -5 -17
-4 -19 4 -7 8 11 11 12 11 2 0 -7 5 -10 10 -7 6 3 10 -1 10 -9 0 -9 4 -16 8
-16 4 0 8 9 8 19 0 11 -5 17 -10 14 -5 -3 -6 -1 -2 5 4 8 2 10 -7 6 -9 -3 -16
2 -19 14 -3 11 0 19 7 19 7 0 11 -6 8 -14 -4 -9 0 -11 11 -7 9 3 16 2 17 -2 2
-24 8 -47 14 -52 4 -4 6 0 5 8 -4 29 0 38 36 65 34 26 38 27 49 11 12 -15 13
-15 19 1 9 23 8 29 -9 25 -7 -1 -16 5 -19 14 -5 14 -4 15 8 5 11 -9 16 -9 21
0 6 8 10 8 16 -2 4 -7 11 -10 16 -6 10 11 -19 28 -37 22 -9 -3 -6 2 5 11 11 8
19 19 18 24 -1 4 7 16 19 26 12 11 19 14 15 8 -3 -6 0 -20 9 -30 14 -18 15
-18 4 3 -8 17 -7 24 6 31 15 8 15 10 0 15 -12 5 -15 3 -10 -6 4 -6 -2 -3 -14
7 -27 23 -27 25 -4 21 9 -2 17 -4 17 -5 0 -9 33 -4 42 6 10 10 9 14 -8 19 -11
4 -18 9 -15 12 3 4 1 12 -5 19 -8 10 -6 12 10 9 25 -5 43 23 31 46 -6 11 -4
15 11 16 10 1 19 -4 20 -10 0 -7 4 -2 10 11 5 14 13 20 20 16 7 -4 9 -3 5 4
-3 6 -2 14 4 17 8 5 7 11 -1 21 -9 11 -8 19 6 34 10 11 21 17 26 15 4 -3 11
-1 14 5 4 6 3 10 -2 9 -4 -1 -11 0 -15 1 -5 1 -12 3 -18 4 -17 2 -5 46 12 46
6 0 4 -8 -3 -17 -13 -17 -13 -17 5 -3 18 14 19 13 13 -3 -4 -11 -3 -16 4 -12
6 4 8 13 5 20 -8 23 16 36 31 17 13 -16 14 -15 5 2 -7 13 -6 26 2 38 9 15 8
21 -4 29 -13 9 -12 10 3 5 9 -3 17 0 17 6 0 7 6 4 13 -7 10 -13 16 -15 21 -6
4 6 12 8 18 5 7 -4 8 -2 4 4 -4 7 -2 12 3 12 6 0 11 5 11 12 0 6 -8 4 -19 -6
-14 -13 -21 -14 -27 -5 -5 8 -3 10 6 4 10 -6 12 -4 7 8 -3 9 -1 19 5 23 7 5 8
2 3 -6 -5 -8 -3 -11 6 -8 8 3 13 16 12 29 -2 22 -2 22 6 4 5 -11 7 -23 5 -26
-2 -4 3 -10 11 -13 12 -4 13 -1 7 12 -5 9 -7 23 -6 30 1 6 2 21 3 32 0 11 6
20 12 20 5 0 7 -5 3 -12 -4 -7 -3 -8 5 -4 9 6 9 11 1 21 -13 16 -22 57 -11 50
5 -2 15 3 22 12 12 15 12 16 -6 10 -18 -7 -19 -6 -3 6 10 8 14 18 10 23 -4 4
1 2 10 -5 10 -7 23 -9 30 -5 7 5 16 9 21 9 4 0 6 4 5 8 -2 5 8 14 21 21 20 11
21 14 7 19 -12 5 -15 3 -10 -6 4 -6 4 -9 -1 -5 -4 4 -16 -3 -26 -15 -10 -12
-18 -16 -19 -9 0 6 5 12 12 12 6 0 8 3 5 6 -3 4 4 15 17 25 25 19 27 32 12 59
-7 12 -6 12 4 3 16 -15 50 4 43 24 -3 7 -9 10 -14 7 -5 -3 -9 0 -9 5 0 15 27
14 33 -1 3 -8 6 -5 6 5 1 10 5 16 10 13 5 -4 8 2 6 11 -2 10 -4 22 -4 26 -1 5
-6 5 -12 1 -8 -5 -8 -9 1 -14 7 -4 8 -10 3 -13 -5 -3 -15 4 -22 16 -8 12 -10
19 -6 15 4 -4 14 -1 22 7 18 19 34 19 27 1 -3 -8 0 -17 6 -21 6 -3 10 -3 9 2
-4 24 2 53 11 48 6 -3 10 -1 10 4 0 14 -13 14 -26 1 -6 -6 -15 -6 -24 0 -11 7
-11 10 -2 10 7 0 10 5 7 10 -4 6 -1 9 6 8 7 -2 13 2 14 9 0 6 3 14 7 18 4 4 4
13 1 21 -3 8 -1 14 5 14 5 0 9 -10 8 -22 0 -11 6 -23 14 -25 9 -3 11 -1 5 4
-16 12 -12 30 10 48 11 9 14 13 6 9 -10 -5 -13 -3 -8 9 4 12 2 14 -11 10 -10
-3 -8 1 6 12 17 12 20 20 13 29 -8 9 -4 12 17 11 15 -1 33 -4 39 -8 8 -5 10 3
8 25 -4 31 -3 32 10 14 8 -11 15 -14 15 -8 0 7 10 22 22 34 19 19 20 22 4 33
-15 12 -15 13 3 18 15 3 18 1 14 -11 -4 -9 -2 -13 5 -9 6 4 13 -1 15 -10 4
-17 5 -17 6 0 1 11 6 16 14 12 6 -4 5 -1 -4 7 -14 12 -14 15 4 33 20 20 20 20
8 -2 -15 -30 15 -41 41 -13 23 25 56 26 75 3 13 -16 13 -16 3 5 -7 15 -8 22 0
22 7 0 7 7 -1 21 -8 15 -8 19 0 15 15 -10 14 7 -1 23 -8 8 -8 11 -2 8 15 -9
15 105 0 115 -8 5 -7 8 1 8 6 0 10 11 9 25 -2 14 -5 25 -7 25 -23 -3 -49 -14
-49 -22 0 -5 -5 -6 -11 -2 -8 4 -7 9 2 15 7 4 10 11 6 15 -3 4 -14 1 -23 -7
-15 -12 -16 -11 -10 9 6 17 4 21 -8 16 -9 -3 -14 -10 -11 -14 3 -5 1 -11 -4
-14 -5 -4 -12 -2 -15 3 -4 5 -2 12 4 16 16 10 2 25 -18 19 -14 -5 -14 -4 -2 4
8 7 19 7 25 2 6 -5 17 -5 25 2 13 8 12 9 -2 5 -16 -6 -40 13 -37 29 3 20 -2
34 -12 34 -8 0 -8 -4 0 -14 9 -11 9 -16 0 -21 -8 -6 -7 -10 2 -16 8 -5 9 -9 3
-9 -15 0 -39 29 -30 37 3 3 6 1 6 -6 0 -7 5 -9 11 -6 7 5 3 15 -11 30 -20 21
-20 23 -3 36 16 13 17 12 5 -3 -7 -9 -9 -18 -5 -21 5 -3 13 5 19 18 10 20 9
23 -8 20 -15 -3 -18 0 -13 15 4 12 2 20 -5 20 -6 0 -9 -4 -6 -8 2 -4 0 -14 -6
-22 -8 -13 -9 -12 -5 1 3 9 0 22 -6 29 -9 10 -9 11 1 6 6 -4 12 -2 12 4 0 7 7
7 23 -1 19 -10 18 -8 -5 16 -16 15 -28 35 -28 43 0 13 -3 12 -16 -4 -11 -13
-17 -15 -20 -6 -3 6 -9 10 -13 8 -4 -3 -8 1 -8 9 0 19 2 19 21 -1 14 -13 16
-13 16 -1 0 16 -27 31 -47 28 -7 -1 -13 2 -13 7 0 18 13 20 39 5 19 -11 22
-11 9 -1 -10 8 -15 18 -12 21 3 3 -6 4 -19 3 -31 -4 -55 8 -38 18 6 4 11 1 11
-6 0 -8 5 -6 11 5 6 10 8 21 5 24 -3 4 -6 1 -6 -4 0 -12 -25 -12 -36 -1 -3 4
-13 4 -22 1 -13 -4 -12 -1 3 11 19 17 19 17 -10 11 -28 -6 -29 -6 -10 9 12 9
24 11 29 5 13 -12 26 -11 26 2 0 5 -5 7 -10 4 -6 -3 -13 1 -16 9 -3 9 -11 16
-17 16 -6 0 -7 -3 -4 -7 12 -11 -45 -34 -58 -23 -7 6 -20 8 -29 4 -16 -6 -22
-29 -8 -37 4 -2 2 -2 -5 -1 -7 2 -15 -1 -18 -6 -3 -5 -13 -6 -23 -3 -15 6 -16
5 -2 -13 14 -17 13 -18 -1 -7 -9 7 -19 9 -23 5 -4 -4 -6 0 -4 8 5 23 21 30 38
17 12 -9 13 -9 3 3 -7 8 -13 19 -13 25 0 5 7 2 14 -8 12 -16 14 -15 14 8 0 14
-4 28 -9 31 -5 3 -6 -3 -2 -12 4 -10 2 -15 -4 -11 -20 12 -54 -43 -55 -88 0
-11 -2 -14 -5 -7 -3 6 -9 10 -13 7 -5 -3 -12 -1 -15 5 -4 6 -1 9 5 8 7 -2 14
7 16 20 2 12 -1 22 -8 22 -6 0 -8 -3 -5 -7 11 -10 -14 -34 -27 -26 -6 4 -3 -5
7 -20 19 -30 12 -37 -10 -9 -14 16 -14 16 -9 0 3 -10 1 -18 -5 -18 -6 0 -7 -5
-4 -11 4 -6 -2 -5 -13 2 -12 7 -19 16 -17 19 2 4 -2 7 -10 7 -10 0 -12 -4 -5
-12 5 -7 6 -16 2 -20 -4 -5 -2 -5 5 -1 6 3 15 2 18 -4 4 -6 3 -10 -2 -9 -17 4
-43 -14 -36 -25 3 -6 2 -7 -3 -3 -5 5 -9 13 -9 19 0 6 -8 12 -18 14 -9 1 -15
-2 -11 -7 3 -5 0 -9 -5 -9 -6 0 -11 -5 -11 -11 0 -8 4 -8 14 0 10 9 15 8 19
-2 5 -15 -19 -17 -41 -3 -6 4 -12 4 -12 -1 0 -4 -5 -1 -10 7 -9 13 -10 13 -10
0 0 -13 -1 -13 -10 0 -5 8 -10 10 -10 3 0 -6 -8 -10 -17 -9 -10 2 -18 8 -18
14 0 6 -4 14 -9 19 -5 4 -6 3 -3 -3 4 -6 -6 -17 -21 -23 -19 -9 -27 -10 -30
-1 -3 8 -10 6 -21 -4 -15 -14 -18 -14 -18 -1 0 8 4 12 8 9 15 -9 21 17 7 33
-11 15 -11 16 5 10 11 -4 16 -3 12 4 -4 6 -13 8 -21 5 -8 -3 -14 -2 -14 3 0 9
-65 9 -75 -1 -4 -4 7 -5 23 -3 20 3 39 -3 54 -15 13 -11 17 -19 11 -20 -7 0
-13 5 -13 11 0 8 -4 8 -13 0 -10 -8 -19 -7 -33 3 -15 11 -22 12 -33 3 -8 -7
-12 -7 -9 -2 4 6 -2 16 -12 23 -14 9 -21 9 -26 0 -5 -7 -3 -8 6 -3 9 6 11 4 5
-4 -5 -9 -10 -10 -18 -2 -14 14 -40 15 -32 1 3 -5 1 -10 -4 -10 -12 0 -15 26
-3 33 4 2 2 3 -4 1 -6 -1 -17 3 -24 9 -10 9 -11 9 -6 0 4 -7 2 -13 -4 -13 -6
0 -9 -4 -6 -8 3 -5 -1 -9 -9 -9 -18 0 -19 9 -4 24 8 8 8 13 0 18 -6 3 -10 1
-9 -6 2 -6 -3 -14 -11 -17 -10 -3 -11 0 -5 9 6 11 4 11 -12 -1 -29 -22 -30
-24 -13 -18 9 4 20 -2 27 -12 10 -17 9 -17 -15 -5 -14 7 -31 11 -38 9 -7 -3
-16 -1 -20 5 -3 6 -12 11 -18 11 -7 0 -6 -4 3 -10 13 -8 13 -10 -2 -10 -11 0
-15 -5 -12 -14 3 -8 1 -17 -4 -20 -5 -3 -9 0 -8 7 0 6 -3 12 -9 12 -5 0 -9 -4
-7 -10 2 -5 -2 -4 -10 3 -11 11 -10 14 2 22 8 5 18 6 22 4 4 -3 8 -1 8 4 0 6
-7 13 -16 16 -8 3 -12 2 -9 -4 6 -9 -8 -14 -27 -11 -11 1 -10 -7 1 -28 7 -13
6 -18 -4 -18 -7 0 -11 6 -8 14 3 7 0 13 -6 13 -6 0 -11 -5 -11 -12 0 -6 -3 -8
-7 -5 -3 4 -12 2 -19 -4 -8 -6 -14 -6 -18 0 -4 5 -2 12 4 16 5 3 10 4 10 0 0
-3 9 -1 20 5 11 6 20 16 20 23 0 8 -3 8 -9 -2 -5 -7 -14 -10 -21 -6 -15 9 -41
-25 -34 -45 3 -8 2 -11 -2 -7 -4 4 -16 -1 -27 -10 -11 -10 -17 -12 -13 -5 4 6
2 13 -3 13 -33 4 -41 3 -41 -3 0 -5 0 -13 0 -20 0 -6 6 -4 13 6 12 16 14 16
14 3 0 -23 -24 -29 -41 -12 -18 19 -32 20 -17 2 6 -8 7 -18 3 -22 -4 -5 -2 -5
5 -1 6 3 15 2 18 -4 4 -6 1 -9 -7 -8 -7 2 -12 -3 -10 -11 3 -12 0 -12 -12 -1
-18 14 -22 25 -6 15 6 -3 7 1 4 9 -5 13 -9 12 -24 -6 -15 -19 -20 -20 -33 -10
-12 11 -17 10 -23 0 -4 -7 -4 -10 1 -6 11 11 35 -11 35 -31 -1 -14 -2 -14 -10
1 -6 10 -19 15 -30 13 -11 -2 -20 0 -20 6 0 5 -5 9 -11 9 -8 0 -7 -5 1 -15 11
-13 10 -18 -6 -29 -10 -8 -21 -12 -24 -10 -2 3 1 9 8 13 7 4 10 15 6 26 -6 15
-10 12 -25 -16 l-19 -34 5 33 c5 31 -7 43 -21 20 -4 -7 -3 -8 4 -4 8 5 10 1 5
-11 -11 -32 -14 -33 -41 -19 -19 10 -33 11 -45 5 -13 -8 -15 -7 -10 7 5 13 3
15 -8 9 -8 -5 -11 -4 -6 0 10 12 39 16 32 5 -3 -5 3 -7 12 -6 34 5 24 24 -12
22 -24 -1 -42 -8 -51 -20 -19 -26 -18 -6 1 20 13 19 13 21 -3 21 -34 0 -43 3
-37 13 4 6 3 10 -2 9 -26 -4 -35 1 -24 15 8 10 9 16 1 21 -6 4 -9 1 -8 -6 2
-7 -1 -13 -7 -14 -5 0 -16 -4 -23 -9 -8 -5 -18 -4 -25 3 -6 6 -16 11 -21 11
-6 0 -5 -5 2 -12 7 -7 12 -16 12 -21 0 -5 -10 2 -21 17 -12 15 -19 30 -15 33
3 4 6 1 6 -6 0 -7 5 -9 10 -6 6 4 18 1 26 -6 12 -10 13 -9 8 5 -3 9 -14 16
-24 16 -17 0 -35 25 -32 43 1 4 -3 7 -8 7 -13 0 -13 -13 2 -28 12 -12 -5 -42
-25 -42 -6 0 -3 6 7 13 16 12 16 14 2 26 -9 7 -14 17 -11 21 8 14 -16 23 -27
12 -8 -8 -17 -8 -32 0 -19 10 -20 10 -7 -6 8 -9 20 -15 27 -12 7 3 23 -4 36
-14 13 -11 17 -19 11 -20 -7 0 -13 5 -13 11 0 6 -6 9 -14 6 -8 -3 -22 1 -33 8
-24 19 -25 19 -51 -5 -22 -21 -29 -16 -13 8 4 8 12 13 17 13 5 -1 10 8 10 19
1 11 -3 20 -8 20 -5 0 -6 -10 -2 -22 6 -20 5 -21 -8 -10 -12 10 -18 9 -28 -3
-7 -8 -9 -15 -4 -15 5 0 4 -4 -2 -8 -6 -4 -15 -15 -21 -26 -9 -16 -11 -17 -16
-2 -4 10 -3 15 2 12 5 -3 12 1 15 9 4 12 2 13 -13 6 -10 -6 -22 -7 -26 -3 -4
4 0 -9 9 -28 l17 -35 -28 33 c-29 33 -43 40 -43 21 0 -5 4 -8 9 -5 10 7 23
-19 14 -28 -4 -3 -12 -1 -20 6 -11 8 -12 7 -7 -6 5 -12 2 -15 -9 -10 -9 3 -13
12 -10 20 3 8 -1 14 -8 14 -7 0 -9 -3 -6 -7 4 -3 1 -13 -6 -21 -8 -11 -8 -14
0 -9 6 4 15 2 19 -4 4 -8 3 -9 -4 -5 -11 7 -17 -6 -13 -27 1 -5 -3 -6 -9 -2
-6 3 -8 10 -5 15 9 14 -12 57 -29 57 -8 0 -13 -4 -10 -9 3 -5 10 -6 15 -3 5 4
9 0 9 -8 0 -7 -7 -14 -15 -14 -8 0 -15 4 -15 9 0 5 -7 2 -16 -6 -12 -12 -20
-13 -35 -6 -14 8 -19 7 -19 -2 0 -10 -3 -9 -9 1 -5 8 -7 20 -4 28 3 8 -2 13
-13 13 -16 0 -17 2 -4 10 8 5 11 10 5 10 -5 0 -4 4 3 8 9 6 5 12 -13 22 -23
12 -28 12 -35 0 -5 -8 -6 -18 -3 -24 3 -5 1 -6 -6 -2 -6 4 -9 11 -6 16 9 14
-6 38 -27 43 -21 6 -21 7 -3 34 l18 28 -27 -24 c-14 -14 -26 -19 -26 -13 0 6
5 14 10 17 13 8 13 25 -1 25 -5 0 -8 -4 -5 -9 3 -5 -1 -11 -9 -15 -8 -3 -17
-1 -20 5 -4 5 -11 6 -17 3 -6 -4 -5 -10 3 -15 10 -6 10 -9 2 -9 -6 0 -15 5
-18 10 -4 6 -11 7 -17 4 -7 -4 -8 -2 -4 4 4 7 1 12 -7 12 -8 0 -18 7 -21 16
-3 8 -10 12 -16 9 -6 -3 -17 1 -26 9 -9 9 -20 14 -25 11 -5 -4 -9 -1 -9 5 0 6
-5 8 -12 4 -6 -4 -8 -3 -5 4 4 5 17 8 29 4 16 -4 19 -2 13 8 -5 9 -4 11 4 6 6
-4 8 -12 5 -18 -5 -7 -2 -8 6 -3 9 6 11 4 5 -5 -6 -9 -4 -11 5 -5 8 5 11 4 6
-3 -4 -7 1 -10 14 -7 11 2 18 0 15 -5 -6 -10 23 -27 45 -25 8 1 21 -3 28 -8 9
-7 11 -5 6 7 -4 10 -13 15 -21 11 -11 -4 -14 0 -9 12 5 16 5 16 -6 2 -7 -9
-19 -14 -27 -11 -10 3 -8 10 10 24 24 19 24 19 1 8 -18 -9 -23 -9 -21 2 1 7 1
20 0 28 -1 13 -3 13 -10 1 -5 -8 -6 -21 -3 -30 5 -14 4 -14 -11 -2 -12 9 -14
17 -7 25 7 9 0 12 -28 12 -20 -1 -43 -5 -51 -10 -9 -6 -12 -5 -7 2 4 7 -11 10
-48 10 -44 -1 -53 -4 -49 -17 4 -14 4 -14 -6 -1 -7 11 -30 15 -79 16 -58 1
-71 -2 -81 -19z m69 0 c0 -4 6 -5 12 -1 7 5 21 9 32 9 17 2 17 1 3 -10 -13 -9
-14 -15 -4 -26 7 -7 2 -5 -11 6 l-23 19 5 -26 c3 -20 1 -25 -9 -22 -7 3 -16
12 -19 20 -3 8 -10 14 -16 14 -8 0 -7 -7 0 -22 9 -19 9 -21 -2 -8 -17 19 -49
25 -44 8 1 -7 1 -10 -1 -5 -3 4 -8 5 -12 3 -4 -3 -13 0 -21 6 -13 8 -13 9 0 5
9 -3 24 1 34 9 11 7 24 11 29 7 6 -4 8 0 5 8 -4 11 1 15 18 15 13 0 24 -4 24
-9z m77 -22 c0 -8 -4 -12 -9 -9 -4 3 -8 9 -8 15 0 5 4 9 8 9 5 0 9 -7 9 -15z
m178 -35 c3 -5 1 -10 -4 -10 -6 0 -11 5 -11 10 0 6 2 10 4 10 3 0 8 -4 11 -10z
m26 -23 c-10 -9 -11 -8 -5 6 3 10 9 15 12 12 3 -3 0 -11 -7 -18z m2323 15 c3
-5 -1 -9 -9 -9 -8 0 -12 4 -9 9 3 4 7 8 9 8 2 0 6 -4 9 -8z m-2613 -19 c13
-16 12 -17 -3 -4 -17 13 -22 21 -14 21 2 0 10 -8 17 -17z m2644 -3 c3 -5 1
-10 -4 -10 -6 0 -11 5 -11 10 0 6 2 10 4 10 3 0 8 -4 11 -10z m-55 -29 c0 -6
-4 -12 -8 -15 -5 -3 -9 1 -9 9 0 8 4 15 9 15 4 0 8 -4 8 -9z m95 -1 c3 -5 1
-10 -4 -10 -6 0 -11 5 -11 10 0 6 2 10 4 10 3 0 8 -4 11 -10z m-155 -19 c0 -6
-4 -12 -8 -15 -5 -3 -9 1 -9 9 0 8 4 15 9 15 4 0 8 -4 8 -9z m-2009 -44 c-13
-13 -26 -3 -16 12 3 6 11 8 17 5 6 -4 6 -10 -1 -17z m1265 -12 c-1 -8 -5 -17
-8 -21 -5 -4 -4 16 1 34 3 9 9 -1 7 -13z m42 -10 c-3 -3 -9 2 -12 12 -6 14 -5
15 5 6 7 -7 10 -15 7 -18z m175 10 c-3 -9 -8 -14 -10 -11 -3 3 -2 9 2 15 9 16
15 13 8 -4z m-1093 -25 c0 -5 -5 -10 -11 -10 -5 0 -7 5 -4 10 3 6 8 10 11 10
2 0 4 -4 4 -10z m760 6 c0 -3 -4 -8 -10 -11 -5 -3 -10 -1 -10 4 0 6 5 11 10
11 6 0 10 -2 10 -4z m430 -2 c0 -8 -19 -13 -24 -6 -3 5 1 9 9 9 8 0 15 -2 15
-3z m118 -25 c3 -11 2 -11 -7 1 -10 13 -12 13 -21 0 -5 -8 -10 -10 -10 -4 0
27 31 30 38 3z m622 -2 c0 -7 -4 -6 -10 3 -7 11 -10 11 -10 2 0 -7 -5 -10 -11
-6 -8 4 -7 9 2 15 15 9 29 3 29 -14z m-580 1 c0 -4 -7 -8 -15 -8 -8 0 -15 4
-15 8 0 5 7 9 15 9 8 0 15 -4 15 -9z m37 -2 c-1 -6 9 -10 23 -9 22 2 23 2 5
-6 -11 -5 -25 -5 -31 0 -6 5 -13 7 -16 4 -2 -3 -5 1 -5 8 0 8 6 14 13 14 7 0
12 -5 11 -11z m-2585 -3 c-6 -2 -9 -10 -6 -15 4 -7 2 -8 -5 -4 -13 9 -5 26 12
25 9 0 8 -2 -1 -6z m1053 -3 c-3 -5 -12 -10 -18 -10 -7 0 -6 4 3 10 19 12 23
12 15 0z m369 -31 c-3 -6 6 -8 22 -5 21 4 24 2 16 -6 -25 -25 -48 -17 -43 15
1 7 -15 11 -31 8 -5 0 -8 6 -8 14 0 14 3 13 25 -1 14 -9 22 -20 19 -25z m-470
19 c-3 -5 -9 -6 -14 -3 -4 3 -10 -2 -14 -10 -3 -8 -11 -15 -18 -14 -10 0 -10
2 0 6 6 2 12 9 12 14 0 6 -5 7 -12 3 -6 -4 -8 -3 -5 2 3 6 17 10 31 10 13 0
22 -4 20 -8z m-70 -16 c2 -4 -4 -8 -14 -8 -10 0 -16 4 -14 8 3 4 9 8 14 8 5 0
11 -4 14 -8z m889 -16 c4 -10 1 -13 -8 -9 -8 3 -12 9 -9 14 7 12 11 11 17 -5z
m-56 -34 c0 -10 -9 -19 -18 -19 -17 -2 -17 -1 -1 17 22 23 21 23 19 2z m-1787
-68 c0 -8 -19 -13 -24 -6 -3 5 1 9 9 9 8 0 15 -2 15 -3z m3368 -84 c-7 -10
-14 -17 -17 -15 -4 4 18 35 25 35 2 0 -1 -9 -8 -20z m-3441 -7 c-4 -3 -1 -13
6 -21 9 -13 9 -14 -1 -8 -8 5 -11 1 -9 -13 2 -11 6 -23 10 -27 9 -9 -1 -24
-16 -24 -8 0 -8 3 1 9 10 6 10 10 -2 20 -12 10 -13 18 -5 32 5 10 7 19 4 19
-4 0 -3 5 0 10 3 6 9 10 12 10 4 0 3 -3 0 -7z m3423 -167 c0 -2 -7 -7 -16 -10
-8 -3 -12 -2 -9 4 6 10 25 14 25 6z m14 -31 c3 -8 1 -15 -4 -15 -6 0 -10 7
-10 15 0 8 2 15 4 15 2 0 6 -7 10 -15z m-201 -72 c-5 -12 -2 -15 10 -10 15 6
16 4 6 -16 -15 -28 -24 -37 -16 -16 3 9 1 21 -5 27 -6 6 -7 15 -4 21 11 17 16
13 9 -6z m-30 -66 c3 -8 0 -14 -7 -14 -7 0 -13 6 -13 14 0 7 4 13 8 13 4 0 9
-6 12 -13z m-73 -97 c0 -5 -2 -10 -4 -10 -3 0 -8 5 -11 10 -3 6 -1 10 4 10 6
0 11 -4 11 -10z m-3079 -73 c-10 -9 -11 -8 -5 6 3 10 9 15 12 12 3 -3 0 -11
-7 -18z m2920 -220 c-10 -9 -11 -8 -5 6 3 10 9 15 12 12 3 -3 0 -11 -7 -18z
m-27 -53 c5 -14 4 -15 -9 -4 -17 14 -19 20 -6 20 5 0 12 -7 15 -16z m-3184
-138 c0 -3 -4 -8 -10 -11 -5 -3 -10 -1 -10 4 0 6 5 11 10 11 6 0 10 -2 10 -4z
m2989 -152 c-12 -13 -24 -23 -25 -21 -5 4 -4 17 1 17 12 -1 33 26 27 34 -3 5
0 6 7 1 9 -5 7 -13 -10 -31z m-3058 3 c-10 -9 -11 -8 -5 6 3 10 9 15 12 12 3
-3 0 -11 -7 -18z m3019 -84 c0 -1 -13 -9 -29 -18 -20 -10 -32 -11 -36 -5 -4 6
-3 10 2 9 18 -3 34 1 29 9 -2 4 4 8 15 8 10 0 19 -1 19 -3z m-3034 -15 c4 -7
3 -8 -4 -4 -7 4 -12 3 -12 -3 0 -5 6 -12 13 -14 9 -4 9 -6 0 -6 -15 -1 -26 16
-18 29 8 13 12 13 21 -2z m2994 -32 c0 -2 -7 -7 -16 -10 -8 -3 -12 -2 -9 4 6
10 25 14 25 6z m-2986 -18 c-3 -5 -9 -6 -13 -3 -5 2 -8 -7 -8 -20 0 -14 3 -25
8 -25 5 0 9 -5 9 -11 0 -5 -4 -7 -10 -4 -5 3 -10 1 -10 -4 0 -6 5 -11 10 -11
6 0 10 -5 10 -10 0 -6 -11 -3 -24 7 -21 16 -22 20 -10 39 8 11 11 23 8 27 -9
9 3 24 20 24 8 0 13 -4 10 -9z m2992 -17 c-18 -19 -52 -18 -40 1 4 6 10 5 15
-3 8 -13 13 -5 10 14 0 4 6 7 16 7 15 0 15 -2 -1 -19z m-71 -69 c-3 -3 -11 0
-18 7 -9 10 -8 11 6 5 10 -3 15 -9 12 -12z m-2905 -33 c0 -4 -5 -11 -11 -15
-8 -4 -7 -9 2 -15 10 -6 8 -8 -7 -7 -11 1 -21 8 -21 15 0 6 5 9 10 6 6 -4 8 0
5 9 -4 9 0 15 8 15 8 0 14 -4 14 -8z m2900 -44 c0 -11 -29 -11 -33 -1 -4 10 1
12 14 9 10 -3 19 -7 19 -8z m-2890 -15 c0 -5 -4 -10 -10 -10 -5 0 -10 5 -10
10 0 6 5 10 10 10 6 0 10 -4 10 -10z m2521 -94 c5 3 9 1 9 -5 0 -5 -9 -9 -19
-8 -12 1 -17 6 -13 16 4 10 7 11 10 3 2 -7 8 -10 13 -6z m-2547 -42 c5 -14 4
-15 -9 -4 -17 14 -19 20 -6 20 5 0 12 -7 15 -16z m290 -89 c-5 -11 -2 -13 10
-9 17 6 23 -11 7 -20 -12 -8 -34 21 -26 34 9 15 15 12 9 -5z m-254 -14 c0 -4
-11 -7 -25 -7 -26 0 -34 11 -12 19 14 5 37 -2 37 -12z m322 12 c-6 -3 -9 -10
-5 -16 4 -7 -1 -6 -10 2 -21 17 -21 17 6 18 12 0 16 -1 9 -4z m-252 -9 c0 -1
-11 -9 -24 -17 -20 -14 -25 -14 -30 -2 -3 9 0 12 10 8 7 -3 14 -1 14 4 0 5 7
10 15 10 8 0 15 -1 15 -3z m439 -21 c-11 -12 -10 -14 2 -13 31 5 43 0 32 -11
-8 -8 -17 -8 -31 0 -17 9 -20 20 -13 49 1 2 6 0 11 -3 8 -5 7 -12 -1 -22z
m142 -76 c-10 -9 -11 -8 -5 6 3 10 9 15 12 12 3 -3 0 -11 -7 -18z m1335 12 c4
-8 9 -7 15 2 9 14 9 13 9 -18 0 -5 -3 -8 -7 -8 -5 0 -14 -4 -20 -8 -7 -5 -21
-3 -30 3 -16 10 -15 10 4 5 27 -7 39 10 16 24 -10 6 -13 11 -6 11 6 0 15 -5
19 -11z m-36 -81 c0 -6 -6 -5 -15 2 -8 7 -15 14 -15 16 0 2 7 1 15 -2 8 -4 15
-11 15 -16z m-33 -121 c0 -7 -9 -14 -20 -14 -19 -2 -19 -2 -1 12 11 8 19 15
20 15 0 0 1 -6 1 -13z m-1097 -17 c0 -5 -2 -10 -4 -10 -3 0 -8 5 -11 10 -3 6
-1 10 4 10 6 0 11 -4 11 -10z m27 -105 c0 -20 -4 -19 -17 5 -8 15 -8 18 3 14
8 -3 14 -11 14 -19z m969 0 c-1 -8 -5 -17 -8 -21 -5 -4 -4 16 1 34 3 9 9 -1 7
-13z m-919 -86 c-6 -10 -16 -15 -21 -12 -6 4 -5 8 2 11 7 2 10 7 8 11 -3 4 1
8 8 8 11 0 12 -4 3 -18z m593 -23 c0 -2 -8 -10 -17 -17 -16 -13 -17 -12 -4 4
13 16 21 21 21 13z m-500 -22 c0 -8 -19 -13 -24 -6 -3 5 1 9 9 9 8 0 15 -2 15
-3z m-23 -36 c-13 -8 -39 10 -31 23 3 5 14 3 24 -3 13 -9 16 -14 7 -20z m287
6 c3 -8 2 -12 -4 -9 -6 3 -10 10 -10 16 0 14 7 11 14 -7z m101 6 c3 -5 1 -10
-4 -10 -6 0 -11 5 -11 10 0 6 2 10 4 10 3 0 8 -4 11 -10z m17 -32 c-7 -7 -12
-8 -12 -2 0 14 12 26 19 19 2 -3 -1 -11 -7 -17z"/>
<path d="M23955 14850 c21 -24 26 -25 19 -6 -3 8 -13 17 -22 21 -13 5 -13 2 3
-15z"/>
<path d="M26572 14867 c-1 -17 1 -19 8 -7 8 12 13 13 30 3 27 -17 40 -17 15 0
-37 25 -51 26 -53 4z"/>
<path d="M26626 14878 c3 -4 9 -8 15 -8 5 0 9 4 9 8 0 5 -7 9 -15 9 -8 0 -12
-4 -9 -9z"/>
<path d="M26679 14888 c-6 -23 -7 -48 -1 -52 4 -2 7 9 7 25 1 24 -2 38 -6 27z"/>
<path d="M17423 14865 c-13 -9 -23 -13 -23 -9 0 4 -15 -13 -34 -37 -19 -23
-33 -46 -30 -50 2 -4 -1 -20 -7 -36 -7 -15 -12 -41 -13 -58 -1 -16 -5 -36 -9
-42 -5 -7 -6 -13 -2 -13 3 0 1 -8 -4 -19 -6 -10 -13 -32 -16 -49 -3 -17 -10
-44 -17 -59 -6 -15 -11 -31 -10 -35 1 -5 -2 -8 -8 -8 -5 0 -10 -7 -10 -15 0
-8 -5 -15 -12 -15 -6 0 -9 -3 -5 -6 3 -4 -1 -20 -9 -36 -8 -16 -12 -33 -9 -38
3 -6 2 -10 -2 -10 -5 0 -10 -21 -10 -46 -1 -27 -7 -51 -15 -55 -7 -5 -10 -9
-6 -9 4 0 -6 -37 -23 -82 -17 -46 -32 -89 -33 -96 -1 -8 -9 -18 -17 -23 -8 -5
-11 -9 -6 -9 4 0 1 -10 -8 -23 -8 -13 -12 -27 -8 -30 3 -4 2 -7 -3 -7 -5 0
-11 -12 -12 -27 -1 -15 -6 -29 -10 -32 -5 -3 -8 -18 -7 -33 1 -16 -1 -28 -5
-28 -4 0 -7 -6 -7 -12 0 -7 -5 -38 -11 -68 -6 -30 -14 -75 -17 -99 -5 -31 -16
-53 -41 -79 -36 -38 -41 -54 -21 -69 17 -14 67 -25 67 -15 0 4 9 18 21 30 11
12 18 26 15 31 -3 5 1 12 10 15 8 3 12 10 9 16 -3 5 -1 10 6 10 7 0 9 3 6 7
-4 3 -2 12 4 20 6 7 9 13 6 13 -3 0 5 25 18 55 14 30 22 55 19 55 -4 0 -2 6 4
13 6 6 10 16 10 20 0 4 4 20 10 35 5 15 15 45 22 67 18 55 54 90 45 43 -3 -12
1 -28 8 -37 9 -12 9 -13 0 -7 -9 5 -13 -1 -13 -23 0 -16 -5 -33 -10 -36 -6 -4
-8 -10 -6 -14 3 -4 0 -25 -6 -47 -7 -21 -13 -42 -14 -46 -1 -5 -3 -10 -4 -13
-1 -3 -4 -9 -5 -15 -1 -5 -4 -11 -5 -12 -7 -7 -6 -128 1 -128 4 0 4 -13 -1
-29 -5 -19 -4 -33 3 -40 7 -7 12 -20 13 -29 1 -18 9 -43 25 -77 6 -11 11 -30
12 -43 0 -12 5 -22 10 -22 5 0 7 -7 4 -15 -4 -8 -2 -17 3 -20 10 -6 90 -171
95 -196 2 -8 -7 -36 -20 -61 -13 -26 -21 -49 -18 -52 4 -3 1 -6 -5 -6 -6 0
-14 -9 -17 -20 -4 -11 -10 -18 -15 -15 -5 3 -13 -3 -19 -12 -6 -10 -11 -14
-11 -8 0 13 -140 -132 -140 -146 0 -5 -4 -7 -10 -4 -5 3 -10 2 -10 -3 0 -5
-17 -28 -37 -50 -21 -22 -47 -50 -59 -63 -32 -37 -73 -69 -92 -73 -42 -8 -50
-17 -48 -57 0 -24 6 -39 14 -39 6 0 12 -7 12 -15 0 -8 3 -15 8 -15 4 0 16 -19
26 -43 35 -77 85 -147 105 -147 6 0 11 -4 11 -9 0 -5 9 -7 20 -4 11 3 18 8 16
12 -2 3 -6 29 -10 56 -3 28 -9 64 -14 80 -4 17 -8 37 -7 45 1 8 -2 22 -6 31
-6 12 4 29 36 61 24 25 41 48 38 52 -3 3 -1 6 6 6 13 0 71 39 83 55 4 5 10 6
14 2 4 -3 14 1 23 11 9 10 28 23 42 29 26 11 27 11 25 -21 -1 -18 -6 -38 -11
-45 -4 -7 -3 -16 2 -20 5 -3 9 -22 10 -41 3 -107 7 -147 14 -162 5 -10 5 -19
0 -22 -5 -3 -8 -31 -8 -61 1 -30 -1 -55 -5 -55 -5 0 -8 -9 -8 -20 0 -11 -4
-20 -8 -20 -14 0 -29 -56 -21 -78 8 -22 12 -22 194 -22 172 0 185 1 185 18 0
13 -17 26 -52 42 -29 13 -55 27 -58 30 -3 4 -19 15 -37 24 -18 9 -38 26 -45
39 -14 26 -22 71 -11 64 4 -3 8 38 8 92 -1 53 3 104 7 114 6 11 5 17 -4 17 -8
0 -9 3 -3 8 12 8 18 32 27 107 2 11 7 23 12 26 5 4 10 22 12 40 7 53 9 63 17
77 5 6 6 12 2 12 -3 0 -1 9 5 20 6 11 15 18 19 15 9 -5 71 53 71 67 0 19 2 24
17 47 8 13 11 21 6 18 -6 -4 -10 17 -10 48 0 33 4 52 10 48 6 -4 7 -1 1 8 -8
13 -14 64 -17 147 -1 17 -4 32 -7 32 -3 0 -6 15 -6 33 0 28 -4 57 -18 162 -1
11 -8 38 -14 60 -6 22 -13 56 -16 75 -2 19 -5 35 -6 35 -1 0 -4 16 -7 35 -2
19 -10 38 -16 42 -8 5 -7 8 3 8 9 0 11 3 5 8 -6 4 -12 27 -14 52 -2 25 -5 48
-7 52 -2 4 0 9 4 12 5 3 25 -9 45 -27 19 -18 49 -43 66 -57 43 -34 83 -94 87
-131 5 -39 34 -76 57 -71 9 2 17 7 17 12 0 5 8 11 18 14 22 7 25 67 5 88 -7 6
-13 18 -13 25 0 7 -4 13 -10 13 -5 0 -10 5 -10 10 0 6 -8 19 -17 29 -20 22
-19 21 -86 109 -27 34 -46 62 -43 62 3 0 -11 17 -30 38 -30 32 -34 42 -30 72
3 19 10 36 16 38 5 2 10 12 10 23 0 10 4 19 8 19 4 0 13 18 19 40 6 23 6 40 1
40 -5 0 -7 4 -4 8 3 5 -1 20 -9 35 -8 15 -11 27 -7 27 4 0 2 4 -3 8 -13 9 -48
88 -48 107 0 8 -4 15 -9 15 -4 0 -8 7 -8 15 0 8 -9 30 -20 50 -11 19 -19 38
-18 43 4 16 48 52 64 52 27 0 71 56 72 91 0 18 6 37 11 42 15 15 14 27 -2 27
-9 0 -12 10 -9 31 7 46 -33 125 -67 133 -66 16 -97 16 -118 1z"/>
<path d="M26594 14852 c3 -6 2 -12 -4 -14 -6 -2 -6 -9 0 -18 8 -13 11 -13 24
0 14 14 13 17 -5 28 -12 8 -18 9 -15 4z"/>
<path d="M26541 14834 c0 -11 3 -14 6 -6 3 7 2 16 -1 19 -3 4 -6 -2 -5 -13z"/>
<path d="M23750 14811 c-14 -27 -13 -41 4 -35 8 3 13 16 12 30 -1 29 -2 29
-16 5z"/>
<path d="M23693 14787 c-3 -6 -1 -7 5 -3 6 3 13 3 16 -2 7 -11 -11 -37 -25
-37 -19 0 -22 -22 -4 -29 9 -3 14 -2 11 3 -7 12 29 43 39 34 4 -5 3 2 -3 13
-6 12 -9 23 -7 26 3 3 -2 5 -10 5 -9 0 -19 -5 -22 -10z"/>
<path d="M26685 14790 c-16 -7 -17 -9 -3 -9 9 -1 20 4 23 9 7 11 7 11 -20 0z"/>
<path d="M24404 14758 c-4 -6 -3 -8 4 -4 6 3 17 -3 25 -14 13 -18 15 -19 21
-5 3 9 2 13 -4 10 -6 -3 -10 -2 -10 3 0 15 -28 23 -36 10z"/>
<path d="M25650 14730 c0 -5 5 -10 11 -10 5 0 7 5 4 10 -3 6 -8 10 -11 10 -2
0 -4 -4 -4 -10z"/>
<path d="M25925 14731 c-3 -5 0 -13 6 -17 7 -4 9 -3 5 4 -3 5 0 13 6 15 9 4
10 6 1 6 -6 1 -14 -3 -18 -8z"/>
<path d="M25970 14719 c0 -5 5 -7 10 -4 6 3 10 8 10 11 0 2 -4 4 -10 4 -5 0
-10 -5 -10 -11z"/>
<path d="M23630 14716 c0 -2 7 -7 16 -10 8 -3 12 -2 9 4 -6 10 -25 14 -25 6z"/>
<path d="M25556 14708 c4 -6 -1 -17 -10 -24 -18 -13 -13 -40 5 -28 5 3 7 9 4
14 -3 5 -1 11 5 15 13 8 13 35 -1 35 -5 0 -7 -5 -3 -12z"/>
<path d="M26035 14690 c3 -5 8 -10 11 -10 2 0 4 5 4 10 0 6 -5 10 -11 10 -5 0
-7 -4 -4 -10z"/>
<path d="M26310 14696 c0 -2 7 -9 15 -16 13 -11 14 -10 9 4 -5 14 -24 23 -24
12z"/>
<path d="M26114 14679 c-12 -20 12 -31 27 -12 13 17 13 17 -5 3 -18 -14 -19
-13 -13 3 7 19 2 23 -9 6z"/>
<path d="M24513 14659 c2 -27 29 -35 33 -10 2 9 1 9 -3 0 -4 -8 -11 -3 -18 12
l-13 24 1 -26z"/>
<path d="M26815 14650 c3 -5 8 -10 11 -10 2 0 4 5 4 10 0 6 -5 10 -11 10 -5 0
-7 -4 -4 -10z"/>
<path d="M25415 14619 c-4 -6 -5 -12 -2 -15 2 -3 7 2 10 11 7 17 1 20 -8 4z"/>
<path d="M23619 14605 c0 -5 -2 -20 -5 -32 -5 -28 2 -30 15 -5 6 11 6 24 0 33
-5 7 -9 10 -10 4z"/>
<path d="M25230 14551 c0 -5 7 -11 15 -15 9 -3 15 0 15 9 0 8 -7 15 -15 15 -8
0 -15 -4 -15 -9z"/>
<path d="M23536 14523 c-6 -14 -5 -15 5 -6 7 7 10 15 7 18 -3 3 -9 -2 -12 -12z"/>
<path d="M26935 14441 c-6 -11 13 -26 22 -17 4 3 1 6 -6 6 -7 0 -9 5 -6 10 3
6 4 10 1 10 -3 0 -7 -4 -11 -9z"/>
<path d="M23486 14432 c-2 -4 -1 -14 4 -22 7 -11 9 -9 7 8 -1 24 -3 26 -11 14z"/>
<path d="M23462 14200 c15 -24 25 -26 25 -5 0 8 -4 12 -9 9 -4 -3 -8 0 -8 5 0
6 -5 11 -10 11 -6 0 -5 -8 2 -20z"/>
<path d="M23440 14169 c-12 -8 -11 -9 5 -7 16 2 20 -3 19 -24 0 -15 4 -24 8
-22 5 3 7 -6 4 -20 -3 -18 -1 -23 9 -20 7 3 16 1 20 -5 3 -6 11 -11 17 -11 7
0 2 9 -10 20 -20 19 -26 33 -23 53 0 4 -4 7 -10 7 -8 0 -7 6 2 18 7 9 9 14 5
10 -5 -4 -14 -4 -20 2 -7 5 -17 5 -26 -1z"/>
<path d="M26920 14140 c-9 -6 -10 -10 -3 -10 6 0 15 5 18 10 8 12 4 12 -15 0z"/>
<path d="M26795 14069 c-3 -4 2 -6 10 -5 21 3 28 13 10 13 -9 0 -18 -4 -20 -8z"/>
<path d="M23475 14050 c-3 -6 1 -7 9 -4 18 7 21 14 7 14 -6 0 -13 -4 -16 -10z"/>
<path d="M23503 14035 c-3 -9 -3 -19 1 -22 3 -4 6 1 6 10 0 10 5 17 11 17 6 0
8 -10 5 -22 -3 -13 -3 -17 0 -10 3 6 10 10 15 6 13 -7 7 19 -6 28 -16 12 -25
9 -32 -7z"/>
<path d="M26692 13994 c-1 -13 0 -24 2 -24 7 0 14 40 7 44 -4 3 -8 -6 -9 -20z"/>
<path d="M23536 13984 c-3 -8 -2 -12 3 -9 5 3 12 1 16 -5 3 -5 2 -10 -3 -10
-6 0 -12 -7 -16 -15 -8 -21 0 -19 23 6 20 22 18 49 -4 49 -7 0 -16 -7 -19 -16z"/>
<path d="M26619 13863 c-13 -17 -13 -17 6 -3 11 8 22 16 24 17 2 2 0 3 -6 3
-6 0 -17 -8 -24 -17z"/>
<path d="M26550 13695 c-7 -8 -9 -15 -5 -15 4 0 2 -6 -4 -13 -8 -10 -7 -14 4
-14 8 0 11 5 8 10 -4 6 0 8 11 4 13 -5 15 -3 7 12 -6 10 -7 21 -4 25 3 3 4 6
1 6 -3 0 -11 -7 -18 -15z"/>
<path d="M23375 13690 c-3 -5 -1 -10 4 -10 6 0 11 5 11 10 0 6 -2 10 -4 10 -3
0 -8 -4 -11 -10z"/>
<path d="M20640 13660 c13 -9 13 -10 0 -11 -8 0 -23 -2 -32 -4 -10 -2 -18 1
-18 6 0 5 -5 9 -10 9 -6 0 -4 -10 4 -22 14 -22 14 -23 -14 -24 -20 -1 -27 3
-23 12 3 8 1 14 -5 14 -15 0 -9 -28 11 -50 20 -24 11 -26 -14 -4 -11 10 -19
12 -24 4 -3 -6 -1 -9 6 -8 6 2 14 -3 17 -11 3 -8 0 -11 -7 -7 -7 5 -9 1 -5 -8
3 -9 10 -16 16 -16 5 0 7 4 4 8 -2 4 6 8 19 8 13 0 21 -4 19 -8 -3 -5 -10 -6
-15 -3 -5 4 -12 0 -15 -8 -3 -9 -14 -13 -27 -11 -21 4 -21 4 -2 -5 11 -4 23
-7 26 -5 4 2 13 -4 20 -13 12 -14 11 -15 -9 -9 -15 5 -22 3 -22 -5 0 -7 3 -9
7 -6 3 4 17 0 29 -8 14 -9 25 -11 29 -5 9 15 37 12 30 -2 -4 -7 0 -5 7 4 14
16 40 19 54 5 4 -3 -3 -4 -15 -2 -12 2 -19 0 -16 -6 4 -5 11 -7 16 -4 5 4 9 0
9 -7 1 -7 7 -2 15 12 7 14 17 25 22 25 18 0 32 17 26 32 -5 11 -3 14 6 9 8 -5
6 4 -4 24 -16 30 -16 32 0 27 10 -4 14 -3 10 4 -4 6 -14 8 -22 5 -11 -5 -13
-1 -8 17 3 12 3 17 -2 11 -9 -12 -45 -15 -38 -3 9 13 -7 40 -21 35 -7 -3 -16
-1 -19 4 -4 6 -12 10 -18 10 -7 0 -6 -4 3 -10z m48 -19 c2 -1 0 -6 -4 -12 -4
-7 -9 -8 -17 0 -7 7 -16 7 -30 0 -14 -8 -22 -7 -31 2 -8 9 -8 10 1 5 7 -4 20
-3 30 2 14 8 27 9 51 3z m39 -80 c0 -11 -5 -18 -9 -15 -4 3 -5 11 -1 19 7 21
12 19 10 -4z m19 -48 c-2 -2 -8 -5 -13 -5 -4 0 -13 -4 -18 -8 -6 -5 -17 -4
-25 1 -13 9 -13 10 0 6 8 -2 21 2 28 10 8 7 18 10 23 7 6 -3 8 -8 5 -11z
m-128 -11 c12 9 12 7 -2 -9 -22 -27 -37 -22 -28 10 5 18 7 19 10 4 3 -15 6
-16 20 -5z"/>
<path d="M23386 13661 c-4 -5 -2 -12 3 -15 5 -4 12 -2 15 3 4 5 2 12 -3 15 -5
4 -12 2 -15 -3z"/>
<path d="M20706 13652 c-2 -4 -1 -14 4 -22 7 -11 9 -9 7 8 -1 24 -3 26 -11 14z"/>
<path d="M20750 13616 c0 -2 7 -7 16 -10 8 -3 12 -2 9 4 -6 10 -25 14 -25 6z"/>
<path d="M26536 13612 c-3 -5 1 -9 9 -9 8 0 12 4 9 9 -3 4 -7 8 -9 8 -2 0 -6
-4 -9 -8z"/>
<path d="M23296 13563 c-6 -14 -5 -15 5 -6 7 7 10 15 7 18 -3 3 -9 -2 -12 -12z"/>
<path d="M26453 13575 c4 -4 -2 -18 -13 -30 -18 -20 -19 -23 -5 -35 10 -8 15
-9 15 -1 0 6 -5 11 -10 11 -6 0 -5 6 2 14 7 8 16 12 20 10 16 -10 16 15 0 27
-9 7 -14 9 -9 4z"/>
<path d="M23175 13511 c-3 -5 -2 -12 3 -15 5 -3 9 1 9 9 0 17 -3 19 -12 6z"/>
<path d="M20506 13488 c3 -5 10 -6 15 -3 13 9 11 12 -6 12 -8 0 -12 -4 -9 -9z"/>
<path d="M23195 13480 c-3 -11 -12 -20 -18 -20 -7 0 -6 -4 3 -10 8 -5 20 -10
25 -10 6 0 3 5 -5 10 -8 5 -10 10 -5 10 6 0 11 9 12 20 1 11 0 20 -2 20 -2 0
-7 -9 -10 -20z"/>
<path d="M26416 13452 c-2 -4 -1 -14 3 -21 6 -9 11 -10 15 -2 4 6 2 11 -4 11
-6 0 -8 5 -5 10 3 6 4 10 1 10 -3 0 -7 -4 -10 -8z"/>
<path d="M23170 13386 c0 -2 7 -7 16 -10 8 -3 12 -2 9 4 -6 10 -25 14 -25 6z"/>
<path d="M26320 13351 c0 -6 4 -13 10 -16 6 -3 7 1 4 9 -7 18 -14 21 -14 7z"/>
<path d="M26316 13308 c3 -5 10 -6 15 -3 13 9 11 12 -6 12 -8 0 -12 -4 -9 -9z"/>
<path d="M23155 13290 c3 -5 8 -10 11 -10 2 0 4 5 4 10 0 6 -5 10 -11 10 -5 0
-7 -4 -4 -10z"/>
<path d="M21557 13253 c-4 -3 -7 -11 -7 -17 0 -6 5 -5 12 2 6 6 9 14 7 17 -3
3 -9 2 -12 -2z"/>
<path d="M21581 13234 c-10 -22 -14 -24 -27 -13 -20 16 -51 22 -58 10 -3 -5 1
-12 10 -15 8 -3 13 -2 10 2 -3 5 1 9 9 9 12 0 12 -3 2 -16 -10 -12 -9 -14 6
-8 11 4 16 3 12 -4 -4 -5 -16 -7 -27 -3 -14 4 -18 2 -14 -5 4 -6 2 -11 -4 -11
-7 0 -10 7 -6 15 3 9 0 15 -10 15 -8 0 -12 -4 -9 -10 3 -5 2 -10 -4 -10 -5 0
-12 6 -15 13 -3 6 -3 2 0 -11 4 -15 0 -24 -10 -28 -9 -3 -16 -14 -17 -23 0
-12 -2 -13 -6 -2 -3 8 2 20 13 28 10 7 14 13 8 13 -19 -1 -44 -28 -38 -43 3
-8 1 -18 -5 -22 -7 -3 -8 0 -5 9 5 13 2 13 -20 3 -22 -10 -24 -14 -11 -23 14
-10 14 -12 0 -18 -9 -3 -13 -2 -10 4 3 6 2 10 -4 10 -18 0 -21 -18 -5 -31 13
-10 17 -10 24 2 7 10 9 8 7 -8 0 -12 -5 -19 -11 -16 -5 4 -6 1 -1 -7 6 -9 4
-11 -5 -5 -9 6 -11 4 -5 -5 6 -9 4 -11 -5 -5 -9 6 -11 4 -6 -4 6 -9 12 -8 26
4 10 9 25 13 36 9 17 -5 18 -5 2 6 -10 6 -18 19 -18 28 0 13 2 14 9 4 4 -7 19
-15 33 -16 19 -2 25 2 24 16 -1 10 -7 23 -15 28 -12 7 -11 14 10 44 21 31 26
33 38 21 13 -12 16 -12 28 3 12 16 13 16 7 -1 -5 -13 -2 -16 10 -11 9 3 16 2
16 -4 0 -5 -13 -8 -30 -7 -16 1 -30 -1 -30 -6 0 -5 -5 -9 -11 -9 -8 0 -8 5 1
15 8 9 9 15 2 15 -13 0 -43 -41 -37 -50 5 -8 55 -20 55 -13 0 2 -10 8 -22 14
-22 9 -21 9 4 6 15 -2 25 -1 23 3 -3 4 4 10 15 13 12 3 24 -1 30 -11 8 -14 10
-15 11 -2 1 8 1 19 0 23 -1 5 3 6 8 3 5 -4 13 -2 16 4 5 8 12 7 22 -2 14 -11
15 -10 9 12 -6 25 -6 25 6 2 6 -13 17 -21 24 -18 8 3 16 0 20 -6 4 -6 3 -8 -4
-4 -6 3 -13 2 -16 -3 -4 -5 2 -8 11 -6 10 1 25 -3 33 -9 11 -8 10 -4 -3 16
-10 17 -13 29 -7 33 6 4 9 1 8 -7 -2 -7 3 -12 10 -10 6 1 12 -4 12 -12 0 -9 9
-14 20 -13 11 1 20 5 20 9 0 4 5 8 10 8 6 0 9 -6 8 -12 -2 -7 2 -12 8 -11 6 1
11 -4 11 -12 0 -8 -4 -12 -9 -9 -4 3 -8 0 -8 -5 0 -18 40 -52 53 -45 9 5 9 4
0 -6 -8 -8 -9 -18 -4 -24 5 -6 11 -20 13 -31 1 -11 10 -23 18 -28 11 -5 9 -6
-6 -4 -11 3 -29 -2 -39 -9 -16 -12 -15 -13 13 -9 18 2 34 -1 38 -6 3 -5 0 -8
-7 -7 -19 5 -22 -20 -2 -26 15 -4 14 -4 -2 -3 -12 2 -19 10 -19 20 1 9 -2 14
-7 11 -10 -6 -5 -46 7 -65 4 -7 -3 -20 -17 -30 -24 -18 -24 -18 -1 -12 12 3
25 9 28 14 3 5 11 9 17 9 7 0 0 -8 -14 -18 -14 -9 -24 -23 -21 -31 3 -9 0 -11
-8 -6 -9 6 -9 3 0 -15 6 -12 9 -24 6 -28 -3 -3 2 -15 11 -26 14 -15 14 -18 2
-8 -9 6 -20 8 -24 4 -5 -4 -5 0 0 8 5 8 5 12 0 8 -4 -4 -15 -2 -24 5 -14 10
-14 10 -4 -4 7 -9 9 -20 5 -24 -4 -5 -1 -5 6 -1 6 4 12 2 12 -4 0 -6 5 -8 10
-5 6 3 10 1 10 -5 0 -7 -6 -10 -13 -7 -18 7 -44 -9 -33 -20 5 -4 11 -2 13 5 3
6 9 9 15 6 6 -4 1 -12 -13 -20 -13 -7 -18 -13 -11 -14 6 0 12 -7 12 -17 0 -15
-2 -15 -19 1 -14 13 -21 14 -27 5 -4 -7 -3 -10 3 -6 6 4 16 1 22 -7 7 -8 8
-16 4 -18 -4 -3 -2 -3 5 -2 18 5 15 -6 -10 -25 -17 -14 -18 -18 -5 -18 9 0 14
3 12 7 -2 4 2 7 10 7 12 0 12 -3 2 -16 -10 -12 -9 -14 6 -8 11 4 16 3 12 -3
-3 -6 -18 -7 -33 -4 -18 4 -23 3 -14 -4 18 -12 17 -21 -5 -38 -16 -13 -16 -13
0 -8 9 3 17 1 17 -5 0 -6 -8 -11 -17 -11 -11 0 -14 -3 -8 -8 6 -4 10 -27 9
-52 -3 -62 -3 -62 -16 -54 -7 4 -8 3 -4 -5 4 -6 12 -9 17 -6 5 3 6 -1 3 -9 -3
-9 -11 -13 -17 -9 -6 4 -7 1 -2 -6 5 -9 10 -10 18 -2 6 6 16 11 22 11 5 0 2
-5 -8 -11 -14 -8 -15 -14 -7 -24 8 -10 8 -15 -1 -20 -8 -6 -7 -10 2 -16 9 -5
0 -7 -24 -5 -20 2 -40 0 -43 -5 -3 -5 0 -8 8 -7 7 2 12 -3 11 -9 -2 -7 0 -13
5 -13 4 0 18 -9 31 -19 18 -14 21 -20 11 -26 -9 -5 -11 -4 -6 3 7 11 -6 17
-27 13 -5 -1 -5 4 -1 11 4 7 4 10 -1 6 -4 -4 -15 -2 -24 4 -12 10 -12 8 2 -8
20 -24 22 -38 5 -28 -10 6 -10 5 -1 -8 7 -8 9 -19 5 -24 -4 -4 0 -3 8 3 17 13
37 12 58 0 7 -5 12 -3 12 4 0 10 3 10 11 2 12 -12 42 -6 34 7 -2 4 8 5 23 3
26 -4 26 -4 8 11 -11 9 -25 16 -30 16 -6 1 0 7 14 15 14 8 20 14 15 15 -13 0
-17 38 -4 45 5 3 6 -1 3 -10 -5 -11 -2 -14 10 -9 15 6 15 9 2 29 -12 18 -12
22 -1 22 8 0 12 -4 10 -8 -3 -3 2 -12 10 -19 10 -9 15 -9 15 -1 0 6 -4 11 -8
11 -5 0 -9 7 -9 15 0 9 6 14 14 11 8 -3 11 -1 8 4 -3 6 -18 8 -33 5 -21 -4
-22 -3 -8 3 14 6 16 11 8 16 -7 4 -16 5 -20 2 -5 -3 -9 1 -9 9 0 10 5 11 19 4
16 -9 18 -5 18 31 0 25 -5 40 -12 40 -7 0 -5 5 5 11 26 15 21 32 -5 19 l-23
-11 21 18 c12 10 21 25 19 33 -2 10 5 17 19 18 17 1 18 -1 6 -9 -12 -9 -12
-10 3 -5 10 3 21 6 23 6 2 0 4 5 4 11 0 5 -4 8 -9 4 -5 -3 -12 -1 -16 5 -4 6
-11 8 -16 5 -5 -4 -9 -1 -9 5 0 7 7 10 15 6 13 -5 17 0 14 20 0 4 5 11 13 16
10 7 9 8 -4 4 -12 -3 -18 0 -18 10 0 8 -5 12 -11 8 -8 -4 -8 0 0 15 13 24 23
29 15 7 -7 -18 12 -30 22 -15 5 8 3 9 -6 4 -8 -5 -11 -3 -8 6 3 8 12 13 19 11
10 -3 9 1 -2 15 -18 20 -14 47 4 36 7 -3 9 -3 5 2 -4 4 -2 15 5 24 11 14 10
14 -5 2 -11 -8 -18 -9 -18 -3 0 6 5 14 10 17 6 3 10 11 10 16 0 6 -10 0 -22
-13 -13 -13 -20 -19 -15 -14 11 15 8 28 -5 20 -7 -4 -8 -3 -4 5 4 6 12 8 18 5
7 -5 9 0 6 14 -4 12 -2 25 4 28 5 3 7 12 5 18 -3 7 -1 19 3 26 5 8 4 22 -2 33
-8 15 -7 18 3 12 9 -6 11 -3 6 8 -3 9 -1 17 4 19 5 2 11 13 12 26 0 12 5 22 9
22 4 0 7 6 6 13 -2 6 3 11 10 9 8 -1 11 2 6 9 -5 9 -12 7 -23 -7 -9 -10 -23
-20 -31 -22 -11 -2 -10 1 3 11 9 8 17 22 17 31 0 10 4 15 8 12 5 -3 9 1 9 9 0
8 -7 17 -14 19 -8 3 -11 11 -7 17 4 8 3 9 -5 5 -6 -4 -8 -13 -4 -19 3 -7 -3
-3 -15 7 -21 18 -21 20 -5 38 13 15 14 21 4 27 -7 4 -14 17 -15 27 -2 10 -6
18 -9 17 -4 -2 -12 -3 -19 -3 -6 0 -3 -7 8 -15 10 -8 15 -15 10 -15 -6 0 -1
-7 10 -15 17 -13 17 -14 2 -15 -16 0 -20 6 -17 27 1 10 -30 25 -41 18 -6 -4
-7 1 -3 11 4 12 3 15 -6 10 -7 -5 -10 -2 -9 6 2 7 -3 12 -10 10 -8 -1 -11 2
-7 8 3 5 2 10 -4 10 -5 0 -12 -6 -15 -12 -3 -7 -3 -2 1 12 5 22 4 23 -10 11
-14 -11 -18 -11 -23 2 -3 9 -13 14 -22 10 -15 -4 -15 -3 -2 6 11 8 18 7 27 -5
7 -10 13 -12 18 -4 3 5 10 8 14 6 4 -3 13 0 21 6 12 8 12 9 -2 4 -10 -3 -20
-1 -23 4 -3 5 -13 6 -22 3 -9 -4 -14 -2 -10 3 3 6 1 16 -5 24 -8 12 -9 11 -4
-4 5 -15 2 -17 -14 -13 -11 3 -18 1 -14 -4 3 -5 0 -9 -5 -9 -6 0 -11 5 -11 10
0 16 -22 12 -36 -7 -12 -16 -13 -15 -9 12 l4 30 -15 -30 -15 -30 6 30 c3 17 2
26 -2 20 -12 -15 -33 -17 -33 -3 0 21 -21 -7 -23 -31 -1 -11 -5 -21 -9 -21 -5
0 -6 14 -3 30 6 37 2 38 -14 4z m-15 -49 c-3 -8 0 -15 6 -15 6 0 9 -3 5 -6
-10 -11 -26 6 -20 21 3 8 7 15 10 15 3 0 3 -7 -1 -15z m-118 -111 c2 -1 -4 -4
-13 -8 -9 -3 -13 -2 -10 4 3 6 1 10 -4 10 -6 0 -11 5 -11 11 0 8 6 7 18 -2 9
-7 18 -14 20 -15z m367 -4 c3 -5 2 -10 -4 -10 -5 0 -13 5 -16 10 -3 6 -2 10 4
10 5 0 13 -4 16 -10z m145 -79 c-6 -12 -16 -21 -23 -21 -8 0 -9 3 -1 8 6 4 14
16 17 26 4 10 10 16 13 13 3 -3 1 -15 -6 -26z m7 -67 c-3 -3 -12 -4 -19 -1 -8
3 -5 6 6 6 11 1 17 -2 13 -5z m-107 -60 c0 -2 -9 0 -20 6 -11 6 -20 13 -20 16
0 2 9 0 20 -6 11 -6 20 -13 20 -16z m70 -74 c0 -5 -2 -10 -4 -10 -3 0 -8 5
-11 10 -3 6 -1 10 4 10 6 0 11 -4 11 -10z m-80 -14 c0 -3 -4 -8 -10 -11 -5 -3
-10 -1 -10 4 0 6 5 11 10 11 6 0 10 -2 10 -4z m84 -101 c-7 -16 -24 -21 -24
-6 0 8 7 13 27 20 1 1 0 -6 -3 -14z m-124 -35 c0 -5 -2 -10 -4 -10 -3 0 -8 5
-11 10 -3 6 -1 10 4 10 6 0 11 -4 11 -10z m91 -13 c-10 -9 -11 -8 -5 6 3 10 9
15 12 12 3 -3 0 -11 -7 -18z m-91 -17 c0 -5 -5 -10 -11 -10 -5 0 -7 5 -4 10 3
6 8 10 11 10 2 0 4 -4 4 -10z m115 -59 c-6 -5 -25 10 -25 20 0 5 6 4 14 -3 8
-7 12 -15 11 -17z m-121 -43 c-3 -4 -11 -5 -19 -1 -21 7 -19 12 4 10 11 0 18
-5 15 -9z m-19 -45 c-12 -26 -12 -36 -4 -54 5 -10 3 -16 -4 -16 -14 0 -16 45
-3 65 4 7 5 21 1 30 -5 13 -3 14 6 5 7 -7 9 -19 4 -30z m22 -28 c0 -8 -4 -15
-9 -15 -10 0 -11 14 -1 23 9 10 10 9 10 -8z m-25 -62 c-10 -4 -10 -8 -1 -19 7
-8 7 -14 1 -14 -12 0 -23 26 -15 34 4 3 11 6 17 5 6 0 5 -3 -2 -6z m-27 -135
c5 4 5 1 1 -6 -6 -10 -11 -10 -22 -1 -8 6 -14 14 -14 16 0 3 6 0 13 -6 8 -6
18 -7 22 -3z"/>
<path d="M20530 13225 c13 -16 2 -45 -15 -39 -7 3 -16 1 -19 -4 -3 -5 2 -9 11
-8 9 0 19 -9 23 -24 6 -21 4 -26 -12 -27 -16 -2 -17 1 -7 13 13 16 6 30 -10
20 -12 -8 -6 -46 10 -60 9 -8 10 -8 5 1 -5 9 -2 11 10 6 11 -4 13 -8 6 -11 -7
-2 -10 -8 -7 -13 4 -5 0 -6 -8 -3 -20 7 -32 -15 -17 -29 10 -10 11 -8 6 8 -5
15 -4 17 4 9 16 -16 -8 -54 -29 -46 -14 5 -14 4 -1 -10 14 -15 16 -15 27 -1
10 13 12 13 10 -5 0 -11 -5 -18 -11 -15 -5 4 -7 0 -4 -9 4 -8 2 -21 -4 -29 -8
-12 -9 -11 -5 1 3 9 -2 25 -10 35 -13 19 -14 18 -9 -10 3 -16 15 -38 26 -47
12 -10 16 -19 10 -23 -5 -3 -10 -1 -10 5 0 6 -5 8 -12 4 -7 -5 -8 -2 -3 7 7
12 5 12 -6 1 -12 -11 -12 -14 0 -22 27 -16 20 -40 -15 -55 -32 -13 -50 -31
-21 -19 8 3 14 -2 14 -11 0 -9 -6 -14 -12 -11 -6 2 -12 -2 -12 -9 0 -7 5 -11
12 -9 6 3 11 -6 10 -23 0 -22 -5 -28 -22 -27 -12 0 -20 -3 -17 -8 3 -4 12 -8
20 -8 9 0 14 -6 12 -12 -3 -7 -10 -13 -15 -13 -6 0 -15 -4 -20 -9 -5 -5 -3 -6
5 -2 8 5 12 0 12 -13 0 -22 16 -36 24 -22 4 5 1 11 -6 13 -8 3 -8 9 0 24 13
22 14 20 16 -23 2 -25 -1 -30 -15 -28 -11 2 -17 -2 -17 -13 1 -9 -2 -27 -6
-38 -8 -25 18 -59 36 -48 7 4 8 2 4 -4 -4 -8 -15 -8 -31 -2 -23 9 -45 -3 -31
-17 3 -4 6 -1 6 5 0 6 7 9 15 6 8 -4 13 -10 10 -14 -3 -5 1 -11 7 -14 7 -3 2
-3 -11 0 -15 4 -21 2 -17 -4 4 -6 -2 -15 -11 -21 -10 -6 -13 -11 -7 -11 5 0
15 5 22 12 21 21 13 -5 -8 -27 l-20 -21 22 -24 22 -23 -22 5 c-12 4 -20 2 -17
-2 3 -5 2 -10 -2 -13 -5 -2 -3 -2 4 -1 6 2 14 -2 17 -9 3 -9 8 -8 15 3 7 10
11 11 11 3 0 -7 -18 -22 -40 -33 -22 -11 -40 -23 -40 -26 0 -3 4 -2 10 1 13 8
50 15 50 9 0 -2 -11 -9 -24 -14 -19 -7 -23 -14 -19 -31 4 -14 2 -20 -4 -16 -7
5 -9 -1 -6 -15 4 -22 4 -23 -11 -4 -9 11 -16 15 -16 10 0 -6 6 -16 13 -23 10
-12 8 -13 -8 -7 -18 7 -18 5 3 -14 23 -22 31 -47 10 -34 -7 5 -8 3 -4 -5 5 -7
10 -10 13 -7 3 3 14 1 24 -4 11 -6 20 -6 23 -1 7 10 25 9 41 -1 6 -4 17 -3 25
2 9 5 20 4 28 -2 10 -9 12 -8 10 3 -2 8 3 13 10 11 8 -1 11 2 7 8 -4 6 -2 17
5 25 8 9 8 15 0 20 -6 3 -7 11 -4 17 4 7 2 8 -4 4 -6 -3 -16 2 -21 13 -15 28
-14 38 2 17 12 -16 14 -16 26 -2 8 9 10 16 5 16 -5 0 -2 5 6 10 11 7 11 10 2
10 -7 0 -11 3 -9 8 3 4 -1 13 -9 20 -17 15 -18 8 -3 -20 9 -16 8 -19 -3 -12
-11 6 -11 5 0 -8 9 -11 10 -18 2 -23 -5 -3 -10 0 -11 7 0 7 -2 24 -4 38 -4 36
4 43 30 26 15 -10 26 -12 30 -6 4 6 1 9 -6 8 -6 -2 -14 3 -16 10 -3 6 1 12 8
12 6 0 2 9 -11 20 l-23 20 21 0 c12 0 22 5 22 11 0 5 -4 7 -10 4 -10 -6 -13
13 -12 68 0 15 -3 25 -8 22 -5 -3 -11 -1 -15 4 -3 6 3 8 15 6 30 -6 53 21 38
45 -7 10 -15 17 -18 15 -4 -2 -7 3 -7 11 0 10 7 8 25 -8 l24 -23 -18 32 c-10
17 -23 29 -28 26 -5 -3 -6 -1 -2 6 4 6 12 8 18 5 7 -5 9 -1 5 9 -3 9 -2 19 2
21 14 9 21 -6 10 -25 -7 -14 -6 -17 4 -13 16 6 16 51 -1 82 -7 12 -9 22 -5 22
4 0 0 7 -10 14 -12 9 -14 16 -8 21 6 3 11 1 11 -5 0 -6 5 -8 12 -4 7 5 8 2 3
-7 -6 -11 -5 -12 6 -1 11 10 10 15 -8 27 -19 14 -30 61 -11 49 4 -3 5 -12 2
-22 -5 -15 -4 -15 9 1 9 10 24 25 34 33 17 14 16 14 -5 4 -13 -7 -26 -9 -30
-6 -3 3 -1 6 3 6 5 0 0 7 -11 16 -18 14 -18 15 5 4 18 -9 26 -9 35 1 8 9 8 10
-1 5 -9 -5 -13 0 -13 13 0 10 -5 21 -10 23 -6 2 -1 9 11 16 12 8 18 9 15 4 -3
-6 0 -12 7 -15 7 -3 13 3 13 13 0 12 -7 17 -21 15 -28 -3 -27 33 1 47 18 9 18
8 2 -5 -10 -8 -15 -17 -11 -20 10 -10 25 -8 18 2 -3 5 -1 12 5 16 19 12 10 26
-11 20 -23 -8 -24 -9 21 44 20 24 23 42 5 35 -8 -4 -12 -11 -8 -17 3 -6 1 -7
-6 -3 -6 4 -8 12 -5 18 5 7 1 9 -9 5 -24 -9 -21 0 4 14 17 9 20 8 14 -2 -6 -8
-4 -10 4 -5 9 6 8 13 -6 28 -19 21 -18 24 3 46 20 20 26 14 9 -11 -14 -22 -12
-37 6 -37 5 0 5 7 2 17 -4 10 -2 14 4 10 6 -4 9 4 7 20 -1 16 4 32 14 39 16
11 15 12 -3 11 -12 -1 -19 3 -17 11 1 8 -2 11 -9 6 -9 -5 -10 -2 -5 11 5 14 4
16 -7 7 -7 -6 -18 -8 -23 -4 -5 4 2 -3 16 -16 l25 -23 -49 22 c-40 17 -50 19
-57 8 -8 -12 -13 -6 -11 12 1 3 -6 6 -13 6 -10 0 -12 -4 -5 -12z m140 -42 c0
-1 -8 -7 -18 -12 -13 -7 -19 -6 -19 2 0 7 9 13 19 13 10 0 18 -1 18 -3z m-36
-154 c-8 -14 -21 -11 -21 5 0 8 6 12 14 9 7 -3 10 -9 7 -14z m-26 -33 c-7 -8
-15 -12 -17 -11 -5 6 10 25 20 25 5 0 4 -6 -3 -14z m-24 -64 c3 -5 -1 -9 -9
-9 -8 0 -12 4 -9 9 3 4 7 8 9 8 2 0 6 -4 9 -8z m-97 -111 c1 -11 -4 -22 -11
-24 -7 -3 -12 4 -12 19 0 28 21 33 23 5z m-10 -56 c0 -8 -4 -12 -9 -9 -5 3 -6
10 -3 15 9 13 12 11 12 -6z m6 -32 c-7 -2 -13 -9 -13 -14 0 -6 5 -7 12 -3 7 4
8 3 4 -5 -6 -9 -11 -9 -22 0 -12 10 -12 14 -2 20 7 5 18 8 23 8 6 0 4 -3 -2
-6z m37 -39 c0 -8 -19 -13 -24 -6 -3 5 1 9 9 9 8 0 15 -2 15 -3z m80 -22 c0
-5 -9 -8 -20 -7 -29 2 -33 10 -5 13 14 1 25 -2 25 -6z m-140 -82 c0 -5 -5 -10
-11 -10 -5 0 -7 -5 -3 -12 4 -7 3 -8 -4 -4 -6 4 -9 13 -5 21 6 17 23 20 23 5z
m113 -45 c0 -6 -7 -11 -16 -11 -16 -2 -16 -1 -1 3 14 4 15 7 3 15 -11 7 -11 9
-1 6 8 -2 14 -8 15 -13z m-139 -112 c-15 -16 -15 -17 2 -24 15 -6 16 -8 3 -8
-9 -1 -22 5 -28 13 -10 11 -8 17 6 25 28 16 36 13 17 -6z m99 -8 c-3 -9 -8
-14 -10 -11 -3 3 -2 9 2 15 9 16 15 13 8 -4z m17 -60 c0 -2 -8 -3 -18 -2 -10
0 -19 7 -19 13 0 9 5 10 19 3 10 -5 18 -12 18 -14z m-120 -75 c0 -5 -5 -10
-11 -10 -5 0 -7 5 -4 10 3 6 8 10 11 10 2 0 4 -4 4 -10z m-39 -53 c-10 -9 -11
-8 -5 6 3 10 9 15 12 12 3 -3 0 -11 -7 -18z m133 -53 c-17 -25 -26 -25 -30 1
-1 8 4 11 12 8 10 -4 12 0 8 11 -3 9 -11 13 -17 9 -6 -3 -7 -1 -3 5 5 9 13 9
27 2 18 -10 18 -12 3 -36z m-119 21 c-1 -5 -6 -18 -10 -29 -7 -17 -9 -17 -21
5 -7 13 -10 27 -8 31 7 11 42 5 39 -7z"/>
<path d="M20377 12195 c3 -8 9 -12 14 -9 12 7 11 11 -5 17 -10 4 -13 1 -9 -8z"/>
<path d="M21047 13227 c3 -5 11 -6 19 -3 7 3 16 1 19 -5 4 -5 9 -8 13 -5 4 2
16 0 27 -5 17 -6 17 -8 3 -8 -17 -1 -23 -13 -18 -36 1 -5 -2 -6 -7 -2 -4 5 -8
16 -8 25 0 12 -9 17 -32 18 -18 0 -30 -3 -27 -7 2 -4 -2 -10 -8 -12 -10 -4
-10 -6 0 -6 6 -1 12 -6 12 -12 0 -6 -7 -8 -16 -5 -14 5 -15 4 -4 -9 10 -12 10
-15 -1 -15 -9 0 -10 -3 -4 -8 6 -4 11 -11 12 -17 12 -79 12 -76 -10 -71 -12 3
-16 3 -9 0 18 -9 15 -27 -4 -20 -14 5 -15 4 -4 -9 11 -14 14 -13 25 2 8 10 17
15 21 10 4 -4 2 -7 -4 -7 -7 0 -12 -5 -12 -11 0 -5 5 -7 12 -3 7 4 8 3 4 -5
-4 -6 -12 -8 -18 -5 -7 5 -9 1 -5 -9 3 -9 1 -19 -5 -23 -6 -4 -8 -3 -5 3 4 6
0 16 -7 22 -11 9 -16 9 -22 0 -4 -7 -3 -9 4 -5 6 3 13 2 17 -4 3 -5 1 -10 -6
-10 -8 0 -7 -5 4 -12 9 -7 19 -29 22 -48 5 -31 5 -33 -8 -17 -12 18 -14 18
-28 1 -7 -10 -9 -15 -2 -11 16 10 34 -25 23 -43 -5 -8 -6 -18 -3 -24 3 -5 1
-6 -5 -2 -7 4 -12 2 -12 -4 0 -6 -4 -9 -9 -6 -4 3 -7 -5 -7 -17 1 -12 -5 -31
-13 -41 -9 -11 -10 -16 -3 -12 7 4 15 1 18 -8 3 -8 13 -12 22 -9 14 4 15 3 2
-5 -10 -8 -19 -7 -29 1 -12 10 -12 9 -1 -10 8 -12 20 -19 29 -16 11 4 10 1 -3
-9 -11 -9 -29 -14 -40 -12 -13 3 -15 2 -6 -2 19 -9 49 -47 44 -56 -3 -4 -12
-4 -20 -1 -13 5 -13 7 -2 14 10 7 9 9 -4 9 -24 0 -23 -16 3 -34 l22 -15 -22 2
c-11 1 -21 5 -21 9 0 4 -5 8 -12 8 -6 0 -4 -8 6 -19 10 -11 25 -17 34 -14 12
4 11 1 -3 -10 -14 -11 -22 -12 -27 -4 -4 7 -6 2 -5 -10 0 -12 6 -19 12 -16 5
2 -1 -4 -15 -15 -13 -11 -29 -18 -34 -15 -5 4 -6 1 -1 -6 5 -9 10 -10 18 -2
16 16 31 13 18 -3 -9 -11 -9 -20 -2 -35 8 -14 8 -22 -1 -27 -6 -4 -8 -3 -4 4
3 6 2 13 -3 16 -5 4 -8 -2 -6 -11 1 -10 -2 -24 -8 -31 -8 -10 -7 -16 4 -23 8
-5 10 -9 6 -9 -4 0 -3 -9 4 -21 8 -16 8 -24 -1 -33 -8 -8 -10 -7 -5 5 4 10 2
20 -4 23 -16 10 -9 -38 8 -50 11 -9 12 -12 1 -19 -9 -5 -11 -4 -6 3 4 7 2 12
-3 12 -6 0 -11 -9 -11 -21 0 -13 -4 -18 -12 -13 -7 4 -10 3 -5 -1 4 -5 -1 -18
-10 -29 -18 -21 -18 -21 5 -2 12 11 22 14 22 8 0 -6 -4 -13 -10 -17 -5 -3 -6
-13 -3 -21 4 -12 8 -13 14 -3 4 7 5 17 3 21 -3 4 0 8 5 8 14 0 13 -10 -3 -39
-13 -23 -14 -23 -24 -5 -6 10 -12 14 -12 7 0 -16 21 -28 43 -25 9 2 17 -3 17
-10 0 -10 2 -10 9 1 6 9 11 10 15 2 5 -8 13 -8 26 -1 13 7 21 7 25 -1 5 -7 12
-3 21 9 9 13 22 19 36 16 20 -4 20 -3 4 4 -20 9 -32 42 -15 42 5 0 9 7 9 15 0
8 5 15 12 15 6 0 9 3 5 6 -8 8 -40 -11 -35 -21 1 -4 -5 -9 -15 -11 -17 -2 -17
-1 -3 15 14 15 14 19 0 39 -10 15 -11 22 -3 20 16 -4 23 19 7 25 -7 2 -5 3 5
1 13 -2 17 2 13 13 -3 8 -6 17 -6 19 0 3 -6 2 -12 -2 -7 -4 -9 -3 -5 1 13 15
34 14 33 -2 0 -8 9 -19 22 -24 15 -6 21 -5 17 1 -3 6 -13 10 -21 10 -8 0 -14
5 -14 11 0 5 4 8 9 5 9 -6 9 1 -4 42 -6 18 -10 21 -17 10 -8 -10 -9 -10 -5 2
2 8 11 14 19 12 9 -1 22 6 29 15 13 17 13 17 -5 3 -18 -14 -19 -13 -13 3 3 9
2 17 -3 17 -6 0 -10 -5 -10 -12 0 -6 -3 -8 -7 -5 -3 4 2 15 11 26 11 12 14 21
7 26 -6 3 -11 1 -11 -4 0 -6 -5 -11 -11 -11 -8 0 -8 5 1 15 7 8 16 12 21 9 5
-3 9 0 9 5 0 6 3 10 8 10 4 -1 14 -1 22 0 13 1 13 2 0 11 -9 5 -19 5 -27 -2
-8 -6 -16 -8 -20 -4 -3 3 -1 6 5 6 7 0 12 8 12 18 0 10 5 23 10 28 16 16 1 44
-18 37 -13 -4 -14 -2 -4 4 7 6 14 19 15 30 1 15 7 19 22 16 17 -4 16 -2 -5 12
-14 9 -17 14 -8 11 10 -3 17 -2 16 2 -3 14 14 42 23 37 4 -3 6 4 4 15 -4 18 6
25 29 21 5 -1 4 5 -3 13 -11 13 -10 17 3 22 9 3 16 10 16 16 0 5 -4 6 -10 3
-17 -11 -11 12 11 36 l20 24 -11 -25 c-11 -24 -10 -24 4 -6 20 25 21 47 1 40
-8 -4 -15 -1 -15 5 0 6 6 10 13 9 6 -2 12 4 11 12 -1 9 7 16 17 16 16 0 17 -2
3 -17 -10 -12 -12 -19 -4 -24 5 -3 8 -10 5 -15 -3 -5 -1 -11 4 -14 10 -7 9 20
-2 30 -10 10 13 35 25 28 6 -4 5 3 -1 14 -6 12 -17 19 -25 16 -7 -3 -16 2 -20
12 -5 14 -4 15 9 4 8 -7 15 -9 15 -5 0 5 10 0 21 -11 22 -19 22 -19 10 3 -19
37 -45 47 -71 29 -13 -10 -13 -9 -1 7 8 10 9 17 3 17 -6 0 -13 -4 -17 -9 -3
-6 -15 -9 -26 -8 -18 1 -18 3 -5 13 9 6 13 14 9 17 -3 4 -12 2 -20 -4 -9 -9
-13 -8 -13 0 0 6 5 11 10 11 6 0 10 5 10 11 0 5 -4 7 -10 4 -6 -3 -7 1 -4 9 4
11 16 14 42 11 21 -2 29 -1 19 1 -9 3 -15 10 -12 15 4 5 1 9 -4 9 -6 0 -11 -5
-11 -11 0 -8 -5 -8 -15 1 -8 7 -15 18 -15 24 0 6 4 5 9 -3 7 -10 12 -11 27 -1
16 10 16 11 2 6 -19 -6 -19 -6 -22 40 -1 22 2 30 11 27 7 -3 10 -10 6 -17 -12
-18 -12 -36 -1 -36 6 0 8 6 5 14 -3 8 -3 17 1 21 10 10 11 65 1 59 -5 -3 -9 0
-9 5 0 6 -3 10 -7 10 -19 -3 -34 2 -29 9 2 4 -17 8 -44 7 -26 0 -46 -4 -43 -8z
m23 -47 c-6 -11 -5 -22 3 -30 8 -10 6 -10 -7 0 -18 13 -19 13 -14 -1 4 -9 1
-16 -7 -16 -10 0 -11 5 -4 18 5 10 9 22 8 26 -3 15 1 20 15 20 11 0 12 -5 6
-17z m108 -1 c3 -12 2 -12 -6 0 -6 8 -15 10 -22 6 -9 -5 -11 -4 -6 4 10 15 28
10 34 -10z m-128 -69 c0 -5 -2 -10 -4 -10 -3 0 -8 5 -11 10 -3 6 -1 10 4 10 6
0 11 -4 11 -10z m7 -42 c-3 -8 -6 -5 -6 6 -1 11 2 17 5 13 3 -3 4 -12 1 -19z
m-12 -108 c-4 -6 -1 -19 6 -28 12 -16 12 -16 -5 0 -16 14 -15 38 0 38 3 0 2
-5 -1 -10z m92 4 c-3 -3 -12 -4 -19 -1 -8 3 -5 6 6 6 11 1 17 -2 13 -5z m43
-94 c0 -5 -5 -10 -11 -10 -5 0 -7 5 -4 10 3 6 8 10 11 10 2 0 4 -4 4 -10z
m-20 -70 c-7 -4 -9 -13 -5 -20 5 -9 4 -11 -3 -6 -7 4 -13 2 -13 -3 -1 -6 -2
-16 -3 -21 0 -6 -7 -14 -14 -19 -8 -5 -13 -12 -12 -17 1 -5 -4 -10 -12 -12 -9
-2 -8 0 2 7 8 6 11 11 5 11 -5 0 -1 7 9 15 11 9 14 15 7 15 -9 0 -8 4 3 15 8
8 18 24 21 35 4 11 11 17 17 14 7 -4 6 -9 -2 -14z m-145 -20 c-12 -13 -12 -19
-2 -30 8 -9 8 -11 0 -6 -6 3 -14 2 -18 -4 -4 -6 -11 -8 -16 -4 -6 4 -6 10 1
19 6 7 10 17 9 21 -3 18 2 23 21 21 17 -1 18 -3 5 -17z m-5 -124 c0 -3 -4 -8
-10 -11 -5 -3 -10 -1 -10 4 0 6 5 11 10 11 6 0 10 -2 10 -4z m-40 -155 c0 -6
-4 -13 -10 -16 -5 -3 -10 -11 -10 -17 0 -7 5 -6 14 1 11 9 16 9 22 -1 4 -7 4
-10 -1 -6 -4 4 -14 3 -21 -3 -17 -14 -30 7 -15 25 6 7 8 16 4 19 -3 4 -1 7 5
7 7 0 12 -4 12 -9z m-19 -94 c-6 -8 -9 -23 -6 -36 2 -12 0 -19 -6 -16 -5 4 -7
10 -4 15 3 5 0 12 -6 16 -9 5 -7 11 6 21 24 17 31 17 16 0z m124 -27 c3 -6 -1
-7 -9 -4 -18 7 -21 14 -7 14 6 0 13 -4 16 -10z m-145 -130 c0 -5 -5 -10 -11
-10 -5 0 -7 5 -4 10 3 6 8 10 11 10 2 0 4 -4 4 -10z m117 -55 c0 -8 -4 -12 -9
-9 -4 3 -8 9 -8 15 0 5 4 9 8 9 5 0 9 -7 9 -15z m-19 -30 c-3 -3 -9 2 -12 12
-6 14 -5 15 5 6 7 -7 10 -15 7 -18z"/>
<path d="M21465 13230 c-3 -5 -1 -10 4 -10 6 0 11 5 11 10 0 6 -2 10 -4 10 -3
0 -8 -4 -11 -10z"/>
<path d="M20494 13212 c4 -3 14 -7 22 -8 9 -1 13 0 10 4 -4 3 -14 7 -22 8 -9
1 -13 0 -10 -4z"/>
<path d="M26237 13203 c-10 -9 -9 -23 1 -23 5 0 9 7 9 15 0 17 -1 18 -10 8z"/>
<path d="M21855 13170 c15 -16 33 -26 38 -23 6 3 1 10 -11 14 -15 6 -20 14
-16 26 5 15 4 16 -5 3 -7 -10 -11 -11 -11 -2 0 6 -5 12 -12 12 -6 0 1 -13 17
-30z"/>
<path d="M21398 13183 c7 -3 16 -2 19 1 4 3 -2 6 -13 5 -11 0 -14 -3 -6 -6z"/>
<path d="M21366 13153 c2 -7 -3 -13 -11 -13 -8 0 -15 -5 -15 -11 0 -5 -4 -7
-10 -4 -5 3 -7 0 -4 -8 3 -8 -5 -18 -18 -25 -13 -6 -18 -11 -11 -11 7 -1 26
13 43 29 17 17 35 30 40 30 6 0 10 5 10 11 0 5 -4 8 -9 5 -5 -4 -11 -3 -14 1
-2 5 -2 2 -1 -4z"/>
<path d="M21587 13143 c-3 -5 -2 -15 2 -22 7 -10 10 -10 16 -1 4 6 3 16 -3 22
-5 5 -12 6 -15 1z"/>
<path d="M21190 13131 c0 -6 4 -13 10 -16 6 -3 7 1 4 9 -7 18 -14 21 -14 7z"/>
<path d="M21750 13104 c0 -8 5 -12 10 -9 6 4 8 11 5 16 -9 14 -15 11 -15 -7z"/>
<path d="M26163 13099 c6 -20 -20 -62 -34 -54 -5 4 -9 4 -9 1 0 -2 15 -14 33
-26 31 -21 31 -21 8 -1 -22 20 -20 26 4 21 6 -1 7 2 3 5 -4 4 -3 15 2 24 5 11
5 23 -2 32 -8 12 -9 11 -5 -2z"/>
<path d="M21305 13070 c-4 -6 -12 -7 -18 -3 -7 4 -4 -5 6 -20 9 -15 13 -27 7
-27 -5 0 -10 5 -10 11 0 5 -5 7 -12 3 -6 -4 -8 -3 -4 4 14 23 -14 21 -30 -3
-15 -23 -43 -38 -29 -16 3 5 0 13 -6 17 -8 4 -9 3 -5 -4 4 -7 2 -12 -3 -12 -6
0 -11 4 -11 9 0 5 -9 11 -20 14 -17 4 -18 3 -8 -16 7 -12 11 -26 10 -31 -2 -5
4 -4 12 4 13 10 19 10 31 0 8 -7 15 -9 15 -4 0 4 13 -5 29 -20 25 -24 29 -25
35 -10 5 14 9 14 24 3 15 -12 16 -12 5 2 -7 9 -9 20 -5 25 4 4 -1 2 -10 -5
-10 -7 -18 -9 -18 -5 0 5 -10 15 -21 23 -20 12 -21 11 -15 -6 5 -13 4 -15 -4
-7 -6 6 -8 18 -5 27 6 14 9 13 26 -4 25 -25 31 -24 59 6 19 20 21 27 10 40
-14 17 -26 19 -35 5z m25 -20 c0 -5 -4 -10 -10 -10 -5 0 -10 5 -10 10 0 6 5
10 10 10 6 0 10 -4 10 -10z m-45 -70 c3 -5 1 -10 -4 -10 -6 0 -11 5 -11 10 0
6 2 10 4 10 3 0 8 -4 11 -10z"/>
<path d="M21754 13062 c0 -10 6 -19 13 -19 8 0 9 6 2 19 -5 10 -11 18 -12 18
-2 0 -3 -8 -3 -18z"/>
<path d="M21947 13066 c-10 -8 -14 -17 -9 -20 6 -3 13 1 16 10 3 8 11 12 17 8
8 -4 9 -3 5 4 -9 14 -7 15 -29 -2z"/>
<path d="M21326 13011 c-4 -6 -2 -11 4 -11 6 0 9 -4 6 -9 -7 -11 21 -8 31 4 4
4 3 5 -4 1 -6 -3 -16 1 -21 10 -6 11 -11 13 -16 5z"/>
<path d="M21777 13013 c-3 -5 5 -8 18 -8 13 0 21 3 18 8 -2 4 -10 7 -18 7 -8
0 -16 -3 -18 -7z"/>
<path d="M21794 12977 c1 -22 3 -25 12 -12 6 8 15 11 19 7 5 -4 5 -1 1 6 -4 7
-11 10 -16 7 -4 -3 -10 1 -13 7 -2 7 -4 1 -3 -15z"/>
<path d="M23183 12955 c6 -7 15 -11 20 -8 13 8 7 19 -13 20 -16 1 -17 -1 -7
-12z"/>
<path d="M20997 12943 c-11 -11 -8 -21 9 -27 13 -5 14 -4 6 7 -7 8 -9 17 -5
20 3 4 4 7 1 7 -2 0 -8 -3 -11 -7z"/>
<path d="M26069 12935 c-1 -3 -2 -8 -3 -12 -1 -5 -4 -13 -8 -19 -4 -6 -1 -11
5 -11 7 0 13 11 13 24 0 21 -4 31 -7 18z"/>
<path d="M23175 12919 c-10 -15 3 -25 16 -12 7 7 7 13 1 17 -6 3 -14 1 -17 -5z"/>
<path d="M20458 12883 c6 -3 10 -9 6 -14 -3 -5 1 -9 9 -9 22 0 16 26 -7 27
-12 1 -15 -1 -8 -4z"/>
<path d="M20620 12876 c0 -2 7 -7 16 -10 8 -3 12 -2 9 4 -6 10 -25 14 -25 6z"/>
<path d="M21966 12863 c-4 -9 0 -22 9 -30 8 -7 13 -10 10 -7 -3 4 1 14 8 23
11 14 10 14 -5 2 -20 -15 -25 -2 -6 17 8 8 8 12 1 12 -6 0 -14 -8 -17 -17z"/>
<path d="M20986 12861 c-4 -5 -2 -12 3 -15 5 -4 12 -2 15 3 4 5 2 12 -3 15 -5
4 -12 2 -15 -3z"/>
<path d="M21796 12852 c-3 -5 1 -9 9 -9 8 0 12 4 9 9 -3 4 -7 8 -9 8 -2 0 -6
-4 -9 -8z"/>
<path d="M25730 12850 c0 -5 5 -10 11 -10 5 0 7 5 4 10 -3 6 -8 10 -11 10 -2
0 -4 -4 -4 -10z"/>
<path d="M25462 12827 c-20 -21 -21 -25 -6 -43 15 -18 15 -18 5 3 -7 13 -7 24
-2 27 5 4 12 0 14 -6 4 -10 6 -10 6 0 1 7 5 11 10 8 5 -4 8 1 7 9 -4 25 -12
26 -34 2z"/>
<path d="M23170 12820 c0 -13 18 -22 24 -11 3 5 -1 11 -9 15 -8 3 -15 1 -15
-4z"/>
<path d="M25967 12805 c-31 -30 -35 -45 -9 -45 14 0 15 2 2 10 -13 9 -8 14 12
11 4 0 10 8 13 19 4 11 11 17 17 14 7 -4 8 -2 4 4 -9 15 -7 16 -39 -13z"/>
<path d="M21955 12811 c-9 -15 15 -25 28 -12 9 9 7 10 -7 5 -13 -5 -17 -4 -12
4 4 7 5 12 2 12 -3 0 -7 -4 -11 -9z"/>
<path d="M20607 12790 c-9 -11 -13 -20 -7 -20 5 0 14 9 20 20 6 11 9 20 8 20
-2 0 -11 -9 -21 -20z"/>
<path d="M25991 12782 c-7 -14 -6 -19 4 -19 8 0 11 7 7 15 -4 11 -1 14 12 9
10 -4 15 -3 11 3 -9 15 -23 12 -34 -8z"/>
<path d="M21774 12768 c-4 -7 -3 -8 4 -4 7 4 12 1 12 -8 0 -9 5 -16 10 -16 7
0 7 6 0 20 -12 23 -16 24 -26 8z"/>
<path d="M21945 12770 c-3 -5 -1 -11 4 -14 5 -4 12 -2 16 4 4 6 12 7 18 4 7
-4 8 -3 4 1 -11 12 -36 15 -42 5z"/>
<path d="M23157 12769 c7 -7 15 -10 18 -7 3 3 -2 9 -12 12 -14 6 -15 5 -6 -5z"/>
<path d="M21130 12689 c0 -5 5 -7 10 -4 6 3 10 8 10 11 0 2 -4 4 -10 4 -5 0
-10 -5 -10 -11z"/>
<path d="M20950 12686 c0 -2 7 -7 16 -10 8 -3 12 -2 9 4 -6 10 -25 14 -25 6z"/>
<path d="M23827 12683 c-4 -3 -7 -10 -7 -14 0 -11 29 -19 35 -10 6 11 -20 33
-28 24z"/>
<path d="M25310 12687 c0 -2 6 -10 14 -16 11 -9 16 -9 22 1 4 7 4 10 -1 6 -4
-4 -14 -3 -22 3 -7 6 -13 9 -13 6z"/>
<path d="M21104 12639 c-3 -6 -1 -16 6 -22 10 -9 11 -9 5 2 -4 8 -2 17 6 22 9
6 10 9 2 9 -6 0 -15 -5 -19 -11z"/>
<path d="M23967 12519 c6 -23 9 -24 16 -5 3 8 0 17 -7 19 -10 4 -12 -1 -9 -14z"/>
<path d="M21726 12508 c3 -5 10 -6 15 -3 13 9 11 12 -6 12 -8 0 -12 -4 -9 -9z"/>
<path d="M20559 12492 c-13 -16 -13 -16 5 -2 18 14 19 13 13 -2 -3 -10 -3 -19
1 -22 4 -3 8 4 9 14 2 27 -12 33 -28 12z"/>
<path d="M21904 12473 c3 -20 33 -37 41 -23 4 6 3 10 -2 9 -4 -1 -15 -1 -23 0
-12 1 -12 3 -2 10 11 7 11 9 -1 14 -10 4 -14 0 -13 -10z"/>
<path d="M21090 12470 c0 -5 5 -10 10 -10 6 0 10 5 10 10 0 6 -4 10 -10 10 -5
0 -10 -4 -10 -10z"/>
<path d="M20570 12440 c-9 -6 -10 -10 -3 -10 6 0 15 5 18 10 8 12 4 12 -15 0z"/>
<path d="M21896 12431 c-3 -4 1 -16 8 -26 10 -14 15 -15 21 -5 5 9 4 11 -3 6
-7 -4 -12 -3 -12 3 0 5 5 11 12 13 8 3 6 7 -5 11 -9 3 -19 2 -21 -2z"/>
<path d="M21095 12409 c-4 -6 -4 -13 -1 -16 3 -4 6 -1 6 7 0 10 4 10 18 -1 15
-13 16 -12 3 4 -16 20 -18 20 -26 6z"/>
<path d="M25107 12333 c4 -10 2 -14 -5 -9 -18 11 -21 -8 -5 -29 13 -17 15 -17
10 -2 -4 11 -1 20 8 23 19 8 19 20 1 27 -11 4 -13 1 -9 -10z"/>
<path d="M21053 12302 c-7 -13 -8 -23 -1 -33 8 -11 9 -11 5 3 -3 9 -1 18 5 20
6 2 9 9 7 16 -3 8 -8 6 -16 -6z"/>
<path d="M21727 12300 c6 -7 9 -19 6 -26 -7 -18 1 -18 16 0 10 12 8 17 -11 27
-18 9 -21 9 -11 -1z"/>
<path d="M25004 12258 c-12 -19 -12 -48 -1 -55 6 -3 7 -1 3 5 -8 14 23 44 37
35 7 -4 6 1 -2 10 -16 20 -27 21 -37 5z"/>
<path d="M21887 12243 c-11 -3 -16 -11 -13 -19 3 -7 -3 -18 -12 -24 -16 -11
-16 -11 1 -6 9 3 17 1 17 -5 0 -6 5 -7 11 -3 8 5 8 9 -1 14 -16 10 -14 19 7
36 19 14 19 14 -10 7z"/>
<path d="M24755 12189 c11 -13 20 -25 21 -27 1 -1 7 4 14 13 11 13 10 14 -4 9
-11 -4 -16 -2 -14 7 2 7 -6 15 -17 17 -20 4 -20 4 0 -19z"/>
<path d="M24820 12195 c-10 -12 -10 -18 0 -30 13 -16 35 -10 24 6 -3 5 -10 7
-15 4 -13 -9 -11 9 3 23 7 7 9 12 6 12 -3 0 -11 -7 -18 -15z"/>
<path d="M21675 12190 c-3 -5 -1 -10 4 -10 6 0 11 5 11 10 0 6 -2 10 -4 10 -3
0 -8 -4 -11 -10z"/>
<path d="M24867 12176 c-4 -10 -1 -13 8 -9 8 3 12 9 9 14 -7 12 -11 11 -17 -5z"/>
<path d="M24900 12175 c0 -2 6 -8 13 -14 10 -8 14 -7 14 2 0 8 -6 14 -14 14
-7 0 -13 -1 -13 -2z"/>
<path d="M24785 12150 c-3 -6 1 -7 9 -4 18 7 21 14 7 14 -6 0 -13 -4 -16 -10z"/>
</g>
</svg>
